%TF.GenerationSoftware,KiCad,Pcbnew,9.0.5*%
%TF.CreationDate,2025-12-09T21:40:52-04:00*%
%TF.ProjectId,PLC4UNI,504c4334-554e-4492-9e6b-696361645f70,rev?*%
%TF.SameCoordinates,Original*%
%TF.FileFunction,Copper,L4,Bot*%
%TF.FilePolarity,Positive*%
%FSLAX46Y46*%
G04 Gerber Fmt 4.6, Leading zero omitted, Abs format (unit mm)*
G04 Created by KiCad (PCBNEW 9.0.5) date 2025-12-09 21:40:52*
%MOMM*%
%LPD*%
G01*
G04 APERTURE LIST*
G04 Aperture macros list*
%AMRoundRect*
0 Rectangle with rounded corners*
0 $1 Rounding radius*
0 $2 $3 $4 $5 $6 $7 $8 $9 X,Y pos of 4 corners*
0 Add a 4 corners polygon primitive as box body*
4,1,4,$2,$3,$4,$5,$6,$7,$8,$9,$2,$3,0*
0 Add four circle primitives for the rounded corners*
1,1,$1+$1,$2,$3*
1,1,$1+$1,$4,$5*
1,1,$1+$1,$6,$7*
1,1,$1+$1,$8,$9*
0 Add four rect primitives between the rounded corners*
20,1,$1+$1,$2,$3,$4,$5,0*
20,1,$1+$1,$4,$5,$6,$7,0*
20,1,$1+$1,$6,$7,$8,$9,0*
20,1,$1+$1,$8,$9,$2,$3,0*%
G04 Aperture macros list end*
%TA.AperFunction,ComponentPad*%
%ADD10O,1.600000X1.200000*%
%TD*%
%TA.AperFunction,ComponentPad*%
%ADD11O,1.200000X1.200000*%
%TD*%
%TA.AperFunction,ComponentPad*%
%ADD12R,1.905000X2.000000*%
%TD*%
%TA.AperFunction,ComponentPad*%
%ADD13O,1.905000X2.000000*%
%TD*%
%TA.AperFunction,ComponentPad*%
%ADD14O,1.200000X1.600000*%
%TD*%
%TA.AperFunction,ComponentPad*%
%ADD15RoundRect,0.250001X1.149999X1.149999X-1.149999X1.149999X-1.149999X-1.149999X1.149999X-1.149999X0*%
%TD*%
%TA.AperFunction,ComponentPad*%
%ADD16C,2.800000*%
%TD*%
%TA.AperFunction,HeatsinkPad*%
%ADD17C,0.600000*%
%TD*%
%TA.AperFunction,HeatsinkPad*%
%ADD18O,2.100000X1.000000*%
%TD*%
%TA.AperFunction,HeatsinkPad*%
%ADD19O,1.600000X1.000000*%
%TD*%
%TA.AperFunction,ComponentPad*%
%ADD20R,2.300000X2.300000*%
%TD*%
%TA.AperFunction,ComponentPad*%
%ADD21C,2.300000*%
%TD*%
%TA.AperFunction,ComponentPad*%
%ADD22RoundRect,0.249999X0.850001X0.850001X-0.850001X0.850001X-0.850001X-0.850001X0.850001X-0.850001X0*%
%TD*%
%TA.AperFunction,ComponentPad*%
%ADD23C,2.200000*%
%TD*%
%TA.AperFunction,ComponentPad*%
%ADD24RoundRect,0.250001X-1.149999X-1.149999X1.149999X-1.149999X1.149999X1.149999X-1.149999X1.149999X0*%
%TD*%
%TA.AperFunction,ComponentPad*%
%ADD25R,1.700000X1.700000*%
%TD*%
%TA.AperFunction,ComponentPad*%
%ADD26C,1.700000*%
%TD*%
%TA.AperFunction,ViaPad*%
%ADD27C,0.600000*%
%TD*%
%TA.AperFunction,Conductor*%
%ADD28C,0.711200*%
%TD*%
%TA.AperFunction,Conductor*%
%ADD29C,0.508000*%
%TD*%
%TA.AperFunction,Conductor*%
%ADD30C,0.812800*%
%TD*%
%TA.AperFunction,Conductor*%
%ADD31C,0.355600*%
%TD*%
%TA.AperFunction,Conductor*%
%ADD32C,0.254000*%
%TD*%
G04 APERTURE END LIST*
D10*
%TO.P,Q2,1,E*%
%TO.N,/Board-PLC4UNI-G1w/1_NPN_OUT*%
X112914724Y-95184724D03*
D11*
%TO.P,Q2,2,B*%
%TO.N,Net-(Q2-B)*%
X114184724Y-96454724D03*
%TO.P,Q2,3,C*%
%TO.N,VCC*%
X115454724Y-95184724D03*
%TD*%
D12*
%TO.P,Q6,1,B*%
%TO.N,Net-(Q6-B)*%
X86960000Y-60950000D03*
D13*
%TO.P,Q6,2,C*%
%TO.N,Net-(D10-A)*%
X89500000Y-60950000D03*
%TO.P,Q6,3,E*%
%TO.N,GND*%
X92040000Y-60950000D03*
%TD*%
D14*
%TO.P,Q3,1,E*%
%TO.N,/Board-PLC4UNI-G1w/3_NPN_OUT*%
X140815276Y-89914724D03*
D11*
%TO.P,Q3,2,B*%
%TO.N,Net-(Q3-B)*%
X139545276Y-91184724D03*
%TO.P,Q3,3,C*%
%TO.N,VCC*%
X140815276Y-92454724D03*
%TD*%
D15*
%TO.P,J1,1,Pin_1*%
%TO.N,/Board-PLC4UNI-G1w/RS485_A*%
X155000000Y-40000000D03*
D16*
%TO.P,J1,2,Pin_2*%
%TO.N,/Board-PLC4UNI-G1w/RS485_B*%
X150000000Y-40000000D03*
%TO.P,J1,3,Pin_3*%
%TO.N,GND*%
X145000000Y-40000000D03*
%TO.P,J1,4,Pin_4*%
%TO.N,/Board-PLC4UNI-G1w/1_PNP_OUT*%
X140000000Y-40000000D03*
%TO.P,J1,5,Pin_5*%
%TO.N,/Board-PLC4UNI-G1w/2_PNP_OUT*%
X135000000Y-40000000D03*
%TO.P,J1,6,Pin_6*%
%TO.N,/Board-PLC4UNI-G1w/3_PNP_OUT*%
X130000000Y-40000000D03*
%TO.P,J1,7,Pin_7*%
%TO.N,/Board-PLC4UNI-G1w/NO_B_RLY*%
X125000000Y-40000000D03*
%TO.P,J1,8,Pin_8*%
%TO.N,/Board-PLC4UNI-G1w/COM_B_RLY*%
X120000000Y-40000000D03*
%TO.P,J1,9,Pin_9*%
%TO.N,/Board-PLC4UNI-G1w/NC_B_RLY*%
X115000000Y-40000000D03*
%TO.P,J1,10,Pin_10*%
%TO.N,/Board-PLC4UNI-G1w/COM_A_RLY*%
X110000000Y-40000000D03*
%TO.P,J1,11,Pin_11*%
%TO.N,/Board-PLC4UNI-G1w/NO_A_RLY*%
X105000000Y-40000000D03*
%TO.P,J1,12,Pin_12*%
%TO.N,/Board-PLC4UNI-G1w/4_20Output*%
X100000000Y-40000000D03*
%TO.P,J1,13,Pin_13*%
%TO.N,GND*%
X95000000Y-40000000D03*
%TO.P,J1,14,Pin_14*%
%TO.N,/Board-PLC4UNI-G1w/0-10V_OUTPUT*%
X90000000Y-40000000D03*
%TO.P,J1,15,Pin_15*%
%TO.N,/Board-PLC4UNI-G1w/1_NPN_OUT*%
X85000000Y-40000000D03*
%TO.P,J1,16,Pin_16*%
%TO.N,/Board-PLC4UNI-G1w/2_NPN_OUT*%
X80000000Y-40000000D03*
%TO.P,J1,17,Pin_17*%
%TO.N,/Board-PLC4UNI-G1w/3_NPN_OUT*%
X75000000Y-40000000D03*
%TO.P,J1,18,Pin_18*%
%TO.N,/Board-PLC4UNI-G1w/4_NPN_OUT*%
X70000000Y-40000000D03*
%TD*%
D17*
%TO.P,U1,41,GND*%
%TO.N,GND*%
X78260000Y-78900000D03*
X79660000Y-78900000D03*
X77560000Y-78200000D03*
X78960000Y-78200000D03*
X80360000Y-78200000D03*
X78260000Y-77500000D03*
X79660000Y-77500000D03*
X77560000Y-76800000D03*
X78960000Y-76800000D03*
X80360000Y-76800000D03*
X78260000Y-76100000D03*
X79660000Y-76100000D03*
%TD*%
D18*
%TO.P,USB1,S1*%
%TO.N,N/C*%
X142370000Y-55820000D03*
D19*
X146550000Y-55820000D03*
D18*
X142370000Y-47180000D03*
D19*
X146550000Y-47180000D03*
%TD*%
D20*
%TO.P,K1,1*%
%TO.N,Net-(D10-A)*%
X97125000Y-55800000D03*
D21*
%TO.P,K1,2*%
%TO.N,/Board-PLC4UNI-G1w/COM_B_RLY*%
X107285000Y-55800000D03*
%TO.P,K1,3*%
%TO.N,/Board-PLC4UNI-G1w/NO_B_RLY*%
X114905000Y-55800000D03*
%TO.P,K1,4*%
%TO.N,/Board-PLC4UNI-G1w/NC_B_RLY*%
X112365000Y-48180000D03*
%TO.P,K1,5*%
%TO.N,VCC*%
X97125000Y-48180000D03*
%TD*%
D22*
%TO.P,D10,1,K*%
%TO.N,VCC*%
X120080000Y-63500000D03*
D23*
%TO.P,D10,2,A*%
%TO.N,Net-(D10-A)*%
X109920000Y-63500000D03*
%TD*%
D22*
%TO.P,D9,1,K*%
%TO.N,VCC*%
X120080000Y-60000000D03*
D23*
%TO.P,D9,2,A*%
%TO.N,Net-(D9-A)*%
X109920000Y-60000000D03*
%TD*%
D20*
%TO.P,K2,1*%
%TO.N,Net-(D9-A)*%
X89875000Y-47700000D03*
D21*
%TO.P,K2,2*%
%TO.N,/Board-PLC4UNI-G1w/COM_A_RLY*%
X79715000Y-47700000D03*
%TO.P,K2,3*%
%TO.N,/Board-PLC4UNI-G1w/NO_A_RLY*%
X72095000Y-47700000D03*
%TO.P,K2,4*%
%TO.N,unconnected-(K2-Pad4)*%
X74635000Y-55320000D03*
%TO.P,K2,5*%
%TO.N,VCC*%
X89875000Y-55320000D03*
%TD*%
D24*
%TO.P,J2,1,Pin_1*%
%TO.N,+24V*%
X70500000Y-110500000D03*
D16*
%TO.P,J2,2,Pin_2*%
%TO.N,GND*%
X75500000Y-110500000D03*
%TO.P,J2,3,Pin_3*%
%TO.N,/Board-PLC4UNI-G1w/4-20mA_Input*%
X80500000Y-110500000D03*
%TO.P,J2,4,Pin_4*%
%TO.N,GND*%
X85500000Y-110500000D03*
%TO.P,J2,5,Pin_5*%
%TO.N,/Board-PLC4UNI-G1w/1_NPN_IN*%
X90500000Y-110500000D03*
%TO.P,J2,6,Pin_6*%
%TO.N,/Board-PLC4UNI-G1w/2_NPN_IN*%
X95500000Y-110500000D03*
%TO.P,J2,7,Pin_7*%
%TO.N,/Board-PLC4UNI-G1w/3_NPN_IN*%
X100500000Y-110500000D03*
%TO.P,J2,8,Pin_8*%
%TO.N,/Board-PLC4UNI-G1w/4_NPN_IN*%
X105500000Y-110500000D03*
%TO.P,J2,9,Pin_9*%
%TO.N,/Board-PLC4UNI-G1w/0-10_Voltage_Input*%
X110500000Y-110500000D03*
%TO.P,J2,10,Pin_10*%
%TO.N,/Board-PLC4UNI-G1w/1_PNP_IN*%
X115500000Y-110500000D03*
%TO.P,J2,11,Pin_11*%
%TO.N,/Board-PLC4UNI-G1w/2_PNP_IN*%
X120500000Y-110500000D03*
%TO.P,J2,12,Pin_12*%
%TO.N,/Board-PLC4UNI-G1w/3_PNP_IN*%
X125500000Y-110500000D03*
%TO.P,J2,13,Pin_13*%
%TO.N,/Board-PLC4UNI-G1w/4_PNP_IN*%
X130500000Y-110500000D03*
%TO.P,J2,14,Pin_14*%
%TO.N,GND*%
X135500000Y-110500000D03*
%TO.P,J2,15,Pin_15*%
%TO.N,unconnected-(J2-Pin_15-Pad15)*%
X140500000Y-110500000D03*
%TO.P,J2,16,Pin_16*%
%TO.N,unconnected-(J2-Pin_16-Pad16)*%
X145500000Y-110500000D03*
%TO.P,J2,17,Pin_17*%
%TO.N,unconnected-(J2-Pin_17-Pad17)*%
X150500000Y-110500000D03*
%TO.P,J2,18,Pin_18*%
%TO.N,unconnected-(J2-Pin_18-Pad18)*%
X155500000Y-110500000D03*
%TD*%
D12*
%TO.P,Q4,1,B*%
%TO.N,Net-(Q4-B)*%
X78540000Y-59050000D03*
D13*
%TO.P,Q4,2,C*%
%TO.N,Net-(D9-A)*%
X76000000Y-59050000D03*
%TO.P,Q4,3,E*%
%TO.N,GND*%
X73460000Y-59050000D03*
%TD*%
D10*
%TO.P,Q1,1,E*%
%TO.N,/Board-PLC4UNI-G1w/2_NPN_OUT*%
X158000000Y-56000000D03*
D11*
%TO.P,Q1,2,B*%
%TO.N,Net-(Q1-B)*%
X156730000Y-54730000D03*
%TO.P,Q1,3,C*%
%TO.N,VCC*%
X155460000Y-56000000D03*
%TD*%
D10*
%TO.P,Q8,1,E*%
%TO.N,/Board-PLC4UNI-G1w/4_NPN_OUT*%
X124085276Y-49315276D03*
D11*
%TO.P,Q8,2,B*%
%TO.N,Net-(Q8-B)*%
X122815276Y-48045276D03*
%TO.P,Q8,3,C*%
%TO.N,VCC*%
X121545276Y-49315276D03*
%TD*%
D25*
%TO.P,J4,1*%
%TO.N,N/C*%
X130960000Y-64500000D03*
D26*
%TO.P,J4,2*%
X133500000Y-64500000D03*
%TO.P,J4,3*%
X136040000Y-64500000D03*
%TD*%
D27*
%TO.N,*%
X140000000Y-53000000D03*
%TO.N,+3.3V*%
X101603548Y-91765032D03*
X143000000Y-63500000D03*
X153000000Y-87000000D03*
X74500000Y-87000000D03*
X111500000Y-77675000D03*
X153000000Y-68500000D03*
X123000000Y-88000000D03*
X153000000Y-74500000D03*
X153000000Y-79000000D03*
X153000000Y-81500000D03*
X124162943Y-89162943D03*
X147500000Y-94000000D03*
X112500000Y-80234600D03*
X141206000Y-61595000D03*
%TO.N,GND*%
X105187500Y-63365000D03*
X126000000Y-100000000D03*
X138000000Y-50000000D03*
X135000000Y-91560600D03*
X138500000Y-55000000D03*
X150000000Y-89230000D03*
X84735000Y-97230000D03*
X135137500Y-103950000D03*
X117500000Y-94000000D03*
X139500000Y-69415400D03*
X75460000Y-98500000D03*
X71240000Y-84750000D03*
X130050000Y-96000000D03*
X137730000Y-74735000D03*
X139500000Y-67500000D03*
X138000000Y-82500000D03*
X130500000Y-93000000D03*
X114235000Y-76230000D03*
X150000000Y-91500000D03*
X114000000Y-84517000D03*
X72000000Y-56000000D03*
X140000000Y-45000000D03*
X150000000Y-76500000D03*
X137730000Y-84265000D03*
X71240000Y-67250000D03*
X147775000Y-71500000D03*
X117500000Y-99000000D03*
X148861793Y-73138206D03*
X117735000Y-100230000D03*
X106534800Y-68000000D03*
X79500000Y-43000000D03*
X130000000Y-100525000D03*
X139500000Y-69415400D03*
%TO.N,Net-(U1-EN)*%
X74419800Y-86000000D03*
X80026079Y-88086800D03*
X76000000Y-86003202D03*
X77972381Y-87027619D03*
X83000000Y-88500000D03*
%TO.N,/Board-PLC4UNI-G1w/0-10_Input/Voltage_Input_toESP*%
X107500000Y-99500000D03*
X80130000Y-84750000D03*
X110500000Y-102000000D03*
%TO.N,/Board-PLC4UNI-G1w/4-20mA_Input/4-20mA_toESP_IN*%
X146225000Y-70500000D03*
X85500000Y-78000000D03*
X144500000Y-73500000D03*
X150500000Y-67000000D03*
X130500000Y-78500000D03*
X145825000Y-58500000D03*
X103500000Y-99000000D03*
X149091786Y-60591786D03*
%TO.N,Net-(D17-A)*%
X100950000Y-81500000D03*
X94000000Y-85000000D03*
%TO.N,/Board-PLC4UNI-G1w/1_PNP_OUT*%
X134641135Y-46141135D03*
X134500000Y-51000000D03*
%TO.N,/Board-PLC4UNI-G1w/2_PNP_OUT*%
X153712500Y-98000000D03*
X149000000Y-97500000D03*
%TO.N,/Board-PLC4UNI-G1w/3_PNP_OUT*%
X149000000Y-77500000D03*
X158500000Y-77000000D03*
%TO.N,VCC*%
X98812500Y-64635000D03*
X102000000Y-63500000D03*
X105150000Y-78000000D03*
X95500000Y-101500000D03*
X110000000Y-72136200D03*
X137000000Y-87500000D03*
X106820200Y-102175000D03*
X111500000Y-71825000D03*
X139137500Y-48550000D03*
X141000000Y-87500000D03*
X82000000Y-98175000D03*
X143000000Y-85500000D03*
X91000000Y-101500000D03*
X109500000Y-74000000D03*
X115325000Y-101500000D03*
X130000000Y-84675000D03*
X78500000Y-103000000D03*
X108000000Y-75500000D03*
X155825000Y-94500000D03*
%TO.N,/Board-PLC4UNI-G1w/4_20Output*%
X106000000Y-82500000D03*
%TO.N,/Board-PLC4UNI-G1w/PLC4UNI_CPU/USB-*%
X107500000Y-77500000D03*
X86964578Y-86035422D03*
X131500000Y-55000000D03*
X120938799Y-65645168D03*
X123000000Y-64000000D03*
X136862500Y-50450000D03*
X115000000Y-68500000D03*
X134356815Y-52143185D03*
X103000000Y-81000000D03*
X129575423Y-56424576D03*
%TO.N,/Board-PLC4UNI-G1w/PLC4UNI_CPU/USB+*%
X127500000Y-56500000D03*
X94500000Y-76000000D03*
X92500000Y-78000000D03*
X105000000Y-75500000D03*
X136862500Y-48550000D03*
X90500000Y-82500000D03*
X138000000Y-49000000D03*
X118500000Y-62000000D03*
X140000000Y-49500000D03*
%TO.N,/Board-PLC4UNI-G1w/3_NPN_OUT*%
X142000000Y-85212217D03*
%TO.N,/Board-PLC4UNI-G1w/1_NPN_OUT*%
X110675000Y-100000000D03*
%TO.N,/Board-PLC4UNI-G1w/2_NPN_OUT*%
X125000000Y-36500000D03*
%TO.N,/Board-PLC4UNI-G1w/4_NPN_OUT*%
X124000000Y-47000000D03*
%TO.N,/Board-PLC4UNI-G1w/4-20mA_Input*%
X161000000Y-93000000D03*
X158000000Y-70500000D03*
X161382935Y-82986870D03*
X145500000Y-64500000D03*
X144175000Y-58500000D03*
X154500000Y-66500000D03*
%TO.N,/Board-PLC4UNI-G1w/3_PNP_IN*%
X95325000Y-102500000D03*
%TO.N,/Board-PLC4UNI-G1w/2_PNP_IN*%
X135000000Y-84825000D03*
X132500000Y-87500000D03*
%TO.N,/Board-PLC4UNI-G1w/0-10_Voltage_Input*%
X111000000Y-103825000D03*
%TO.N,/Board-PLC4UNI-G1w/4_PNP_IN*%
X97000000Y-96325000D03*
%TO.N,/Board-PLC4UNI-G1w/4_NPN_IN*%
X108500000Y-90500000D03*
X107000000Y-92500000D03*
X114235000Y-72770000D03*
X109000000Y-86500000D03*
%TO.N,/Board-PLC4UNI-G1w/1_NPN_IN*%
X95500000Y-105500000D03*
X91500000Y-109500000D03*
X106000000Y-91000000D03*
X105000000Y-93500000D03*
X115000000Y-83500000D03*
X118500000Y-83000000D03*
%TO.N,/Board-PLC4UNI-G1w/3_NPN_IN*%
X129000000Y-80500000D03*
X102000000Y-109000000D03*
X124000000Y-90500000D03*
X124000000Y-85000000D03*
X127087400Y-82500000D03*
X117500000Y-105500000D03*
%TO.N,/Board-PLC4UNI-G1w/2_NPN_IN*%
X102000000Y-105000000D03*
%TO.N,/Board-PLC4UNI-G1w/PLC4UNI_CPU/FROMESP_OUT_IN-NPN_B*%
X88500000Y-86500000D03*
X92500000Y-88500000D03*
X100675000Y-91000000D03*
X90500000Y-88000000D03*
X79000000Y-83496798D03*
X94000000Y-89000000D03*
%TO.N,/Board-PLC4UNI-G1w/PLC4UNI_CPU/FROMESP_OUT_IN-NPN_C*%
X86000000Y-64000000D03*
X136759999Y-68725015D03*
%TO.N,/Board-PLC4UNI-G1w/PLC4UNI_CPU/FROMESP_OUT_IN-PNP_A*%
X77500000Y-98000000D03*
%TO.N,/Board-PLC4UNI-G1w/PLC4UNI_CPU/FROMESP_OUT_IN-PNP_B*%
X76966179Y-82533821D03*
X112500000Y-93000000D03*
X140018207Y-84516793D03*
X87000000Y-83000000D03*
X78500000Y-81500000D03*
X116500000Y-92000000D03*
%TO.N,/Board-PLC4UNI-G1w/PLC4UNI_CPU/FROMESP_OUT_IN-PNP_C*%
X79168000Y-87332000D03*
X80480236Y-98480236D03*
%TO.N,Net-(OC7-Pad4)*%
X156500000Y-65000000D03*
X156500000Y-61175000D03*
%TO.N,Net-(Q9-G)*%
X150000000Y-80500000D03*
X147175000Y-79000000D03*
%TO.N,/Board-PLC4UNI-G1w/PLC4UNI_CPU/FROMESP_OUT_IN-NPN_D*%
X120528304Y-77111764D03*
X112500000Y-83015400D03*
X90000000Y-85000000D03*
X89018460Y-84018460D03*
X121500000Y-73500000D03*
X115000000Y-80500000D03*
X90570844Y-87000000D03*
%TO.N,Net-(OC13-Pad1)*%
X96683600Y-94500000D03*
X94265000Y-93770000D03*
%TO.N,Net-(OC14-Pad1)*%
X123500000Y-65500000D03*
X121325000Y-67500000D03*
%TO.N,/Board-PLC4UNI-G1w/PLC4UNI_CPU/FROMESP_OUT_IN-NPN_A*%
X102000000Y-72500000D03*
X107500000Y-79000000D03*
X90000000Y-68005200D03*
%TO.N,Net-(Q2-B)*%
X113675000Y-101500000D03*
%TO.N,Net-(Q4-B)*%
X82000000Y-58500000D03*
%TO.N,Net-(Q6-B)*%
X83026079Y-61086800D03*
%TO.N,/Board-PLC4UNI-G1w/PLC4UNI_CPU/FROMESP_IN_OUT-NPN_A*%
X106000000Y-88253200D03*
X87000000Y-80000000D03*
X90641200Y-84500000D03*
X102500000Y-88500000D03*
X123500000Y-96000000D03*
%TO.N,/Board-PLC4UNI-G1w/PLC4UNI_CPU/FROMESP_IN_OUT-PNP_A*%
X93500000Y-79500000D03*
X107000000Y-84500000D03*
X118500000Y-87175000D03*
X102000000Y-80000000D03*
%TO.N,/Board-PLC4UNI-G1w/PLC4UNI_CPU/FROMESP_IN_OUT-NPN_B*%
X139000000Y-77500000D03*
X107892736Y-74392736D03*
X93500000Y-75059800D03*
X142000000Y-76500000D03*
X129960685Y-74539316D03*
X136500000Y-77500000D03*
X107035422Y-74535422D03*
%TO.N,/Board-PLC4UNI-G1w/PLC4UNI_CPU/FROMESP_IN_OUT-NPN_C*%
X88000000Y-77000000D03*
X159563735Y-87175000D03*
X85500000Y-112500000D03*
X159463065Y-90963065D03*
%TO.N,/Board-PLC4UNI-G1w/PLC4UNI_CPU/FROMESP_IN_OUT-PNP_B*%
X92000000Y-98500000D03*
X92000000Y-96000000D03*
%TO.N,/Board-PLC4UNI-G1w/PLC4UNI_CPU/FROMESP_IN_OUT-PNP_C*%
X143675000Y-81500000D03*
X85500000Y-82500000D03*
%TO.N,/Board-PLC4UNI-G1w/0-10V_Output/SDA_V*%
X99000000Y-72605655D03*
X97227895Y-69439024D03*
X107656687Y-79915400D03*
X95912500Y-68365000D03*
X98500000Y-72000000D03*
X86500000Y-65000000D03*
X91000000Y-72000000D03*
%TO.N,/Board-PLC4UNI-G1w/0-10V_Output/SEL*%
X101500000Y-67500000D03*
X87000000Y-69000000D03*
X94500000Y-68500000D03*
%TO.N,/Board-PLC4UNI-G1w/PLC4UNI_CPU/FROMESP_IN_OUT-NPN_D*%
X119357264Y-68857264D03*
X91486015Y-76484600D03*
X116500000Y-67000000D03*
X111000000Y-68000000D03*
X94482798Y-73464455D03*
%TO.N,/Board-PLC4UNI-G1w/0-10V_Output/SCLK_V*%
X112534800Y-76500000D03*
X98000000Y-68000000D03*
X101000000Y-71814600D03*
X98000000Y-68000000D03*
X87000000Y-66000000D03*
%TO.N,Net-(R54-Pad1)*%
X90819000Y-67500000D03*
%TO.N,Net-(USB1-CC1)*%
X140168500Y-55380200D03*
%TO.N,/Board-PLC4UNI-G1w/OUT_RLY_A/RLY_A_INR*%
X82000000Y-65000000D03*
X103500000Y-64000000D03*
%TO.N,/Board-PLC4UNI-G1w/PLC4UNI_CPU/ESP32_UART_A*%
X141206000Y-65405000D03*
X90000000Y-89000000D03*
X125000000Y-80000000D03*
X136500000Y-66000000D03*
X132000000Y-70000000D03*
X119000000Y-84500000D03*
%TO.N,/Board-PLC4UNI-G1w/PLC4UNI_CPU/ESP32_UART_B*%
X85500000Y-86003202D03*
X104000000Y-85000000D03*
X108090400Y-81500000D03*
X103500000Y-89319000D03*
X141206000Y-64135000D03*
X104000000Y-82000000D03*
%TO.N,/Board-PLC4UNI-G1w/OUT_RLY_B/RLY_B_INR*%
X91000000Y-73000000D03*
X86000000Y-72500000D03*
%TD*%
D28*
%TO.N,+3.3V*%
X124162943Y-89162943D02*
X123000000Y-88000000D01*
X149500000Y-94000000D02*
X153000000Y-90500000D01*
X153000000Y-74500000D02*
X153000000Y-68500000D01*
X143000000Y-63500000D02*
X143000000Y-63389000D01*
X153000000Y-90500000D02*
X153000000Y-87000000D01*
X147500000Y-94000000D02*
X149500000Y-94000000D01*
X143000000Y-63389000D02*
X141206000Y-61595000D01*
D29*
X112500000Y-80234600D02*
X112500000Y-78675000D01*
X112500000Y-78675000D02*
X111500000Y-77675000D01*
D28*
X153000000Y-81500000D02*
X153000000Y-79000000D01*
D30*
%TO.N,GND*%
X138000000Y-82500000D02*
X138000000Y-75005000D01*
X130500000Y-95550000D02*
X130050000Y-96000000D01*
X130500000Y-93000000D02*
X130500000Y-95550000D01*
D28*
X106534800Y-64712300D02*
X105187500Y-63365000D01*
D30*
X117965000Y-100000000D02*
X117735000Y-100230000D01*
D31*
X138000000Y-50000000D02*
X138000000Y-54500000D01*
D30*
X138000000Y-75005000D02*
X137730000Y-74735000D01*
D29*
X150000000Y-91500000D02*
X150000000Y-89230000D01*
D28*
X139500000Y-69415400D02*
X139500000Y-67500000D01*
X106534800Y-68000000D02*
X106534800Y-64712300D01*
D31*
X138000000Y-54500000D02*
X138500000Y-55000000D01*
D29*
X150000000Y-74276413D02*
X148861793Y-73138206D01*
X150000000Y-76500000D02*
X150000000Y-74276413D01*
D30*
X135000000Y-86995000D02*
X137730000Y-84265000D01*
X135000000Y-91560600D02*
X135000000Y-86995000D01*
X126000000Y-100000000D02*
X117965000Y-100000000D01*
X117500000Y-99000000D02*
X117500000Y-94000000D01*
D29*
%TO.N,Net-(U1-EN)*%
X74419800Y-86000000D02*
X75996798Y-86000000D01*
X75996798Y-86000000D02*
X76000000Y-86003202D01*
D32*
X80439279Y-88500000D02*
X80026079Y-88086800D01*
X83000000Y-88500000D02*
X80439279Y-88500000D01*
D30*
%TO.N,/Board-PLC4UNI-G1w/0-10_Input/Voltage_Input_toESP*%
X110500000Y-102000000D02*
X110000000Y-102000000D01*
X110000000Y-102000000D02*
X107500000Y-99500000D01*
D28*
%TO.N,/Board-PLC4UNI-G1w/4-20mA_Input/4-20mA_toESP_IN*%
X103500000Y-99000000D02*
X108475076Y-94024924D01*
X108475076Y-94024924D02*
X113259135Y-94024924D01*
X128784059Y-78500000D02*
X130500000Y-78500000D01*
X150500000Y-67000000D02*
X149725000Y-67000000D01*
X113259135Y-94024924D02*
X128784059Y-78500000D01*
X149091786Y-60591786D02*
X147916786Y-60591786D01*
X149725000Y-67000000D02*
X146225000Y-70500000D01*
X147916786Y-60591786D02*
X145825000Y-58500000D01*
%TO.N,Net-(D17-A)*%
X94000000Y-85000000D02*
X97450000Y-85000000D01*
X97450000Y-85000000D02*
X100950000Y-81500000D01*
D30*
%TO.N,/Board-PLC4UNI-G1w/1_PNP_OUT*%
X134641135Y-50858865D02*
X134500000Y-51000000D01*
X134641135Y-46141135D02*
X134641135Y-50858865D01*
D28*
%TO.N,/Board-PLC4UNI-G1w/2_PNP_OUT*%
X149000000Y-97500000D02*
X153212500Y-97500000D01*
X153212500Y-97500000D02*
X153712500Y-98000000D01*
D29*
%TO.N,/Board-PLC4UNI-G1w/3_PNP_OUT*%
X158000000Y-77500000D02*
X158500000Y-77000000D01*
X149000000Y-77500000D02*
X158000000Y-77500000D01*
D28*
%TO.N,VCC*%
X110000000Y-73500000D02*
X109500000Y-74000000D01*
X78500000Y-101675000D02*
X82000000Y-98175000D01*
X99947500Y-63500000D02*
X98812500Y-64635000D01*
X107650000Y-75500000D02*
X105150000Y-78000000D01*
X108000000Y-75500000D02*
X107650000Y-75500000D01*
X91000000Y-101500000D02*
X95500000Y-101500000D01*
X110000000Y-72136200D02*
X110000000Y-73500000D01*
X78500000Y-103000000D02*
X78500000Y-101675000D01*
D29*
X141000000Y-87500000D02*
X143000000Y-85500000D01*
D28*
X102000000Y-63500000D02*
X99947500Y-63500000D01*
D29*
%TO.N,/Board-PLC4UNI-G1w/PLC4UNI_CPU/USB-*%
X135169315Y-52143185D02*
X136862500Y-50450000D01*
X115000000Y-70000000D02*
X115000000Y-68500000D01*
X130075424Y-56424576D02*
X131500000Y-55000000D01*
X134356815Y-52143185D02*
X135169315Y-52143185D01*
X121354832Y-65645168D02*
X123000000Y-64000000D01*
X107500000Y-77500000D02*
X115000000Y-70000000D01*
X129575423Y-56424576D02*
X130075424Y-56424576D01*
X120938799Y-65645168D02*
X121354832Y-65645168D01*
D31*
%TO.N,/Board-PLC4UNI-G1w/PLC4UNI_CPU/USB+*%
X95000000Y-75500000D02*
X105000000Y-75500000D01*
D32*
X138500000Y-49500000D02*
X138000000Y-49000000D01*
D31*
X94500000Y-76000000D02*
X95000000Y-75500000D01*
D32*
X140000000Y-49500000D02*
X138500000Y-49500000D01*
D30*
%TO.N,/Board-PLC4UNI-G1w/2_NPN_OUT*%
X125000000Y-36500000D02*
X83500000Y-36500000D01*
X83500000Y-36500000D02*
X80000000Y-40000000D01*
D28*
%TO.N,/Board-PLC4UNI-G1w/4_NPN_OUT*%
X124000000Y-49230000D02*
X124085276Y-49315276D01*
X124000000Y-47000000D02*
X124000000Y-49230000D01*
D30*
%TO.N,/Board-PLC4UNI-G1w/4-20mA_Input*%
X159410600Y-71910600D02*
X158000000Y-70500000D01*
X161382935Y-82986870D02*
X159410600Y-81014535D01*
X159410600Y-81014535D02*
X159410600Y-71910600D01*
X154500000Y-66500000D02*
X152500000Y-64500000D01*
%TO.N,/Board-PLC4UNI-G1w/4_NPN_IN*%
X108500000Y-87000000D02*
X109000000Y-86500000D01*
X108500000Y-90500000D02*
X108500000Y-87000000D01*
%TO.N,/Board-PLC4UNI-G1w/1_NPN_IN*%
X118000000Y-83500000D02*
X118500000Y-83000000D01*
X105000000Y-92000000D02*
X106000000Y-91000000D01*
X91500000Y-109500000D02*
X95500000Y-105500000D01*
X115000000Y-83500000D02*
X118000000Y-83500000D01*
X105000000Y-93500000D02*
X105000000Y-92000000D01*
%TO.N,/Board-PLC4UNI-G1w/3_NPN_IN*%
X127087400Y-82412600D02*
X129000000Y-80500000D01*
X124192300Y-90500000D02*
X125129143Y-89563157D01*
X125129143Y-86129143D02*
X124000000Y-85000000D01*
X127087400Y-82500000D02*
X127087400Y-82412600D01*
X124000000Y-90500000D02*
X124192300Y-90500000D01*
X105500000Y-105500000D02*
X117500000Y-105500000D01*
X102000000Y-109000000D02*
X105500000Y-105500000D01*
X125129143Y-89563157D02*
X125129143Y-86129143D01*
D29*
%TO.N,/Board-PLC4UNI-G1w/PLC4UNI_CPU/FROMESP_OUT_IN-NPN_B*%
X94000000Y-89000000D02*
X98675000Y-89000000D01*
X90500000Y-88000000D02*
X92000000Y-88000000D01*
X85496798Y-83496798D02*
X88500000Y-86500000D01*
X79000000Y-83496798D02*
X85496798Y-83496798D01*
X92000000Y-88000000D02*
X92500000Y-88500000D01*
X98675000Y-89000000D02*
X100675000Y-91000000D01*
%TO.N,/Board-PLC4UNI-G1w/PLC4UNI_CPU/FROMESP_OUT_IN-NPN_C*%
X132725015Y-68725015D02*
X136759999Y-68725015D01*
X97000000Y-64000000D02*
X99500000Y-61500000D01*
X101058200Y-61558200D02*
X114441800Y-61558200D01*
X86000000Y-64000000D02*
X97000000Y-64000000D01*
X123500000Y-58000000D02*
X129000000Y-63500000D01*
X101000000Y-61500000D02*
X101058200Y-61558200D01*
X99500000Y-61500000D02*
X101000000Y-61500000D01*
X129000000Y-63500000D02*
X129000000Y-65000000D01*
X118000000Y-58000000D02*
X123500000Y-58000000D01*
X129000000Y-65000000D02*
X132725015Y-68725015D01*
X114441800Y-61558200D02*
X118000000Y-58000000D01*
D31*
%TO.N,/Board-PLC4UNI-G1w/PLC4UNI_CPU/FROMESP_OUT_IN-PNP_B*%
X106885034Y-90000000D02*
X109885034Y-93000000D01*
X116500000Y-92000000D02*
X126500000Y-92000000D01*
X138789814Y-83288400D02*
X140018207Y-84516793D01*
X135211600Y-83288400D02*
X138789814Y-83288400D01*
X126500000Y-92000000D02*
X135211600Y-83288400D01*
X76966179Y-82533821D02*
X77466179Y-82533821D01*
X98853506Y-85818000D02*
X103035506Y-90000000D01*
X109885034Y-93000000D02*
X112500000Y-93000000D01*
X89818000Y-85818000D02*
X98853506Y-85818000D01*
X87000000Y-83000000D02*
X89818000Y-85818000D01*
X77466179Y-82533821D02*
X78500000Y-81500000D01*
X104500000Y-90000000D02*
X106885034Y-90000000D01*
X103035506Y-90000000D02*
X104500000Y-90000000D01*
D32*
%TO.N,/Board-PLC4UNI-G1w/PLC4UNI_CPU/FROMESP_OUT_IN-PNP_C*%
X80480236Y-98480236D02*
X78000000Y-96000000D01*
X78000000Y-96000000D02*
X78000000Y-88500000D01*
X78000000Y-88500000D02*
X79168000Y-87332000D01*
D29*
%TO.N,Net-(OC7-Pad4)*%
X155500000Y-64000000D02*
X155500000Y-62500000D01*
X156500000Y-61500000D02*
X156500000Y-61175000D01*
X155500000Y-62500000D02*
X156500000Y-61500000D01*
X156500000Y-65000000D02*
X155500000Y-64000000D01*
%TO.N,Net-(Q9-G)*%
X148675000Y-80500000D02*
X147175000Y-79000000D01*
X150000000Y-80500000D02*
X148675000Y-80500000D01*
%TO.N,/Board-PLC4UNI-G1w/PLC4UNI_CPU/FROMESP_OUT_IN-NPN_D*%
X120528304Y-77111764D02*
X120528304Y-74471696D01*
X115000000Y-80515400D02*
X112500000Y-83015400D01*
X115000000Y-80500000D02*
X115000000Y-80515400D01*
X120528304Y-74471696D02*
X121500000Y-73500000D01*
%TO.N,Net-(OC13-Pad1)*%
X94995000Y-94500000D02*
X94265000Y-93770000D01*
X96683600Y-94500000D02*
X94995000Y-94500000D01*
D28*
%TO.N,Net-(OC14-Pad1)*%
X123325000Y-65500000D02*
X121325000Y-67500000D01*
X123500000Y-65500000D02*
X123325000Y-65500000D01*
%TO.N,/Board-PLC4UNI-G1w/PLC4UNI_CPU/FROMESP_OUT_IN-NPN_A*%
X90000000Y-68005200D02*
X94543855Y-72549055D01*
X98000000Y-73500000D02*
X101000000Y-73500000D01*
X94543855Y-72549055D02*
X97049055Y-72549055D01*
X101000000Y-73500000D02*
X102000000Y-72500000D01*
X97049055Y-72549055D02*
X98000000Y-73500000D01*
D29*
%TO.N,/Board-PLC4UNI-G1w/PLC4UNI_CPU/FROMESP_IN_OUT-NPN_A*%
X87000000Y-80858800D02*
X87000000Y-80000000D01*
X90641200Y-84500000D02*
X87000000Y-80858800D01*
%TO.N,/Board-PLC4UNI-G1w/PLC4UNI_CPU/FROMESP_IN_OUT-PNP_A*%
X117325000Y-86000000D02*
X118500000Y-87175000D01*
X93500000Y-79500000D02*
X101500000Y-79500000D01*
X111500000Y-86000000D02*
X117325000Y-86000000D01*
X110000000Y-84500000D02*
X111500000Y-86000000D01*
X101500000Y-79500000D02*
X102000000Y-80000000D01*
X107000000Y-84500000D02*
X110000000Y-84500000D01*
D28*
%TO.N,/Board-PLC4UNI-G1w/PLC4UNI_CPU/FROMESP_IN_OUT-NPN_B*%
X107035422Y-74535422D02*
X107750050Y-74535422D01*
X129960685Y-74539316D02*
X133539316Y-74539316D01*
X141000000Y-77500000D02*
X142000000Y-76500000D01*
X94059800Y-74500000D02*
X107000000Y-74500000D01*
X139000000Y-77500000D02*
X141000000Y-77500000D01*
X93500000Y-75059800D02*
X94059800Y-74500000D01*
X107750050Y-74535422D02*
X107892736Y-74392736D01*
X133539316Y-74539316D02*
X136500000Y-77500000D01*
%TO.N,/Board-PLC4UNI-G1w/PLC4UNI_CPU/FROMESP_IN_OUT-NPN_C*%
X159463065Y-90963065D02*
X159463065Y-87275670D01*
X159463065Y-87275670D02*
X159563735Y-87175000D01*
%TO.N,/Board-PLC4UNI-G1w/PLC4UNI_CPU/FROMESP_IN_OUT-PNP_B*%
X92000000Y-98500000D02*
X92000000Y-96000000D01*
D29*
%TO.N,/Board-PLC4UNI-G1w/0-10V_Output/SDA_V*%
X89186200Y-67113943D02*
X89186200Y-70186200D01*
D31*
X97227895Y-69439024D02*
X97227895Y-70727895D01*
D29*
X87072257Y-65000000D02*
X89186200Y-67113943D01*
D31*
X97227895Y-70727895D02*
X98500000Y-72000000D01*
D29*
X86500000Y-65000000D02*
X87072257Y-65000000D01*
X89186200Y-70186200D02*
X91000000Y-72000000D01*
%TO.N,/Board-PLC4UNI-G1w/0-10V_Output/SEL*%
X95813800Y-67186200D02*
X94500000Y-68500000D01*
X101186200Y-67186200D02*
X95813800Y-67186200D01*
X101500000Y-67500000D02*
X101186200Y-67186200D01*
D28*
%TO.N,/Board-PLC4UNI-G1w/PLC4UNI_CPU/FROMESP_IN_OUT-NPN_D*%
X118357264Y-68857264D02*
X116500000Y-67000000D01*
X119357264Y-68857264D02*
X118357264Y-68857264D01*
X94447253Y-73500000D02*
X94482798Y-73464455D01*
X93500000Y-73500000D02*
X94447253Y-73500000D01*
X91486015Y-76484600D02*
X91486015Y-75513985D01*
X91486015Y-75513985D02*
X93500000Y-73500000D01*
%TO.N,/Board-PLC4UNI-G1w/0-10V_Output/SCLK_V*%
X98000000Y-68814600D02*
X101000000Y-71814600D01*
X98000000Y-68000000D02*
X98000000Y-68814600D01*
D31*
%TO.N,Net-(R54-Pad1)*%
X90819000Y-67500000D02*
X93500000Y-67500000D01*
D29*
%TO.N,/Board-PLC4UNI-G1w/OUT_RLY_A/RLY_A_INR*%
X84000000Y-63000000D02*
X84500000Y-63000000D01*
X98500000Y-60000000D02*
X101500000Y-60000000D01*
X82000000Y-65000000D02*
X84000000Y-63000000D01*
X95500000Y-63000000D02*
X98500000Y-60000000D01*
X84500000Y-63000000D02*
X95500000Y-63000000D01*
%TO.N,/Board-PLC4UNI-G1w/PLC4UNI_CPU/ESP32_UART_A*%
X140611000Y-66000000D02*
X141206000Y-65405000D01*
X125000000Y-77000000D02*
X132000000Y-70000000D01*
X136500000Y-66000000D02*
X140611000Y-66000000D01*
X125000000Y-80000000D02*
X125000000Y-77000000D01*
%TO.N,/Board-PLC4UNI-G1w/PLC4UNI_CPU/ESP32_UART_B*%
X104000000Y-88819000D02*
X104000000Y-85000000D01*
X103500000Y-89319000D02*
X104000000Y-88819000D01*
D28*
%TO.N,/Board-PLC4UNI-G1w/OUT_RLY_B/RLY_B_INR*%
X86500000Y-73000000D02*
X86000000Y-72500000D01*
X91000000Y-73000000D02*
X86500000Y-73000000D01*
%TD*%
M02*
