%TF.GenerationSoftware,KiCad,Pcbnew,9.0.5*%
%TF.CreationDate,2025-12-09T21:40:52-04:00*%
%TF.ProjectId,PLC4UNI,504c4334-554e-4492-9e6b-696361645f70,rev?*%
%TF.SameCoordinates,Original*%
%TF.FileFunction,Copper,L2,Inr*%
%TF.FilePolarity,Positive*%
%FSLAX46Y46*%
G04 Gerber Fmt 4.6, Leading zero omitted, Abs format (unit mm)*
G04 Created by KiCad (PCBNEW 9.0.5) date 2025-12-09 21:40:52*
%MOMM*%
%LPD*%
G01*
G04 APERTURE LIST*
G04 Aperture macros list*
%AMRoundRect*
0 Rectangle with rounded corners*
0 $1 Rounding radius*
0 $2 $3 $4 $5 $6 $7 $8 $9 X,Y pos of 4 corners*
0 Add a 4 corners polygon primitive as box body*
4,1,4,$2,$3,$4,$5,$6,$7,$8,$9,$2,$3,0*
0 Add four circle primitives for the rounded corners*
1,1,$1+$1,$2,$3*
1,1,$1+$1,$4,$5*
1,1,$1+$1,$6,$7*
1,1,$1+$1,$8,$9*
0 Add four rect primitives between the rounded corners*
20,1,$1+$1,$2,$3,$4,$5,0*
20,1,$1+$1,$4,$5,$6,$7,0*
20,1,$1+$1,$6,$7,$8,$9,0*
20,1,$1+$1,$8,$9,$2,$3,0*%
G04 Aperture macros list end*
%TA.AperFunction,ComponentPad*%
%ADD10O,1.600000X1.200000*%
%TD*%
%TA.AperFunction,ComponentPad*%
%ADD11O,1.200000X1.200000*%
%TD*%
%TA.AperFunction,ComponentPad*%
%ADD12R,1.905000X2.000000*%
%TD*%
%TA.AperFunction,ComponentPad*%
%ADD13O,1.905000X2.000000*%
%TD*%
%TA.AperFunction,ComponentPad*%
%ADD14O,1.200000X1.600000*%
%TD*%
%TA.AperFunction,ComponentPad*%
%ADD15RoundRect,0.250001X1.149999X1.149999X-1.149999X1.149999X-1.149999X-1.149999X1.149999X-1.149999X0*%
%TD*%
%TA.AperFunction,ComponentPad*%
%ADD16C,2.800000*%
%TD*%
%TA.AperFunction,HeatsinkPad*%
%ADD17C,0.600000*%
%TD*%
%TA.AperFunction,HeatsinkPad*%
%ADD18O,2.100000X1.000000*%
%TD*%
%TA.AperFunction,HeatsinkPad*%
%ADD19O,1.600000X1.000000*%
%TD*%
%TA.AperFunction,ComponentPad*%
%ADD20R,2.300000X2.300000*%
%TD*%
%TA.AperFunction,ComponentPad*%
%ADD21C,2.300000*%
%TD*%
%TA.AperFunction,ComponentPad*%
%ADD22RoundRect,0.249999X0.850001X0.850001X-0.850001X0.850001X-0.850001X-0.850001X0.850001X-0.850001X0*%
%TD*%
%TA.AperFunction,ComponentPad*%
%ADD23C,2.200000*%
%TD*%
%TA.AperFunction,ComponentPad*%
%ADD24RoundRect,0.250001X-1.149999X-1.149999X1.149999X-1.149999X1.149999X1.149999X-1.149999X1.149999X0*%
%TD*%
%TA.AperFunction,ComponentPad*%
%ADD25R,1.700000X1.700000*%
%TD*%
%TA.AperFunction,ComponentPad*%
%ADD26C,1.700000*%
%TD*%
%TA.AperFunction,ViaPad*%
%ADD27C,0.600000*%
%TD*%
%TA.AperFunction,Conductor*%
%ADD28C,0.812800*%
%TD*%
%TA.AperFunction,Conductor*%
%ADD29C,0.200000*%
%TD*%
%TA.AperFunction,Conductor*%
%ADD30C,0.508000*%
%TD*%
%TA.AperFunction,Conductor*%
%ADD31C,0.711200*%
%TD*%
%TA.AperFunction,Conductor*%
%ADD32C,0.355600*%
%TD*%
G04 APERTURE END LIST*
D10*
%TO.N,/Board-PLC4UNI-G1w/1_NPN_OUT*%
%TO.C,Q2*%
X112914724Y-95184724D03*
D11*
%TO.N,Net-(Q2-B)*%
X114184724Y-96454724D03*
%TO.N,VCC*%
X115454724Y-95184724D03*
%TD*%
D12*
%TO.N,Net-(Q6-B)*%
%TO.C,Q6*%
X86960000Y-60950000D03*
D13*
%TO.N,Net-(D10-A)*%
X89500000Y-60950000D03*
%TO.N,GND*%
X92040000Y-60950000D03*
%TD*%
D14*
%TO.N,/Board-PLC4UNI-G1w/3_NPN_OUT*%
%TO.C,Q3*%
X140815276Y-89914724D03*
D11*
%TO.N,Net-(Q3-B)*%
X139545276Y-91184724D03*
%TO.N,VCC*%
X140815276Y-92454724D03*
%TD*%
D15*
%TO.N,/Board-PLC4UNI-G1w/RS485_A*%
%TO.C,J1*%
X155000000Y-40000000D03*
D16*
%TO.N,/Board-PLC4UNI-G1w/RS485_B*%
X150000000Y-40000000D03*
%TO.N,GND*%
X145000000Y-40000000D03*
%TO.N,/Board-PLC4UNI-G1w/1_PNP_OUT*%
X140000000Y-40000000D03*
%TO.N,/Board-PLC4UNI-G1w/2_PNP_OUT*%
X135000000Y-40000000D03*
%TO.N,/Board-PLC4UNI-G1w/3_PNP_OUT*%
X130000000Y-40000000D03*
%TO.N,/Board-PLC4UNI-G1w/NO_B_RLY*%
X125000000Y-40000000D03*
%TO.N,/Board-PLC4UNI-G1w/COM_B_RLY*%
X120000000Y-40000000D03*
%TO.N,/Board-PLC4UNI-G1w/NC_B_RLY*%
X115000000Y-40000000D03*
%TO.N,/Board-PLC4UNI-G1w/COM_A_RLY*%
X110000000Y-40000000D03*
%TO.N,/Board-PLC4UNI-G1w/NO_A_RLY*%
X105000000Y-40000000D03*
%TO.N,/Board-PLC4UNI-G1w/4_20Output*%
X100000000Y-40000000D03*
%TO.N,GND*%
X95000000Y-40000000D03*
%TO.N,/Board-PLC4UNI-G1w/0-10V_OUTPUT*%
X90000000Y-40000000D03*
%TO.N,/Board-PLC4UNI-G1w/1_NPN_OUT*%
X85000000Y-40000000D03*
%TO.N,/Board-PLC4UNI-G1w/2_NPN_OUT*%
X80000000Y-40000000D03*
%TO.N,/Board-PLC4UNI-G1w/3_NPN_OUT*%
X75000000Y-40000000D03*
%TO.N,/Board-PLC4UNI-G1w/4_NPN_OUT*%
X70000000Y-40000000D03*
%TD*%
D17*
%TO.N,GND*%
%TO.C,U1*%
X78260000Y-78900000D03*
X79660000Y-78900000D03*
X77560000Y-78200000D03*
X78960000Y-78200000D03*
X80360000Y-78200000D03*
X78260000Y-77500000D03*
X79660000Y-77500000D03*
X77560000Y-76800000D03*
X78960000Y-76800000D03*
X80360000Y-76800000D03*
X78260000Y-76100000D03*
X79660000Y-76100000D03*
%TD*%
D18*
%TO.N,N/C*%
%TO.C,USB1*%
X142370000Y-55820000D03*
D19*
X146550000Y-55820000D03*
D18*
X142370000Y-47180000D03*
D19*
X146550000Y-47180000D03*
%TD*%
D20*
%TO.N,Net-(D10-A)*%
%TO.C,K1*%
X97125000Y-55800000D03*
D21*
%TO.N,/Board-PLC4UNI-G1w/COM_B_RLY*%
X107285000Y-55800000D03*
%TO.N,/Board-PLC4UNI-G1w/NO_B_RLY*%
X114905000Y-55800000D03*
%TO.N,/Board-PLC4UNI-G1w/NC_B_RLY*%
X112365000Y-48180000D03*
%TO.N,VCC*%
X97125000Y-48180000D03*
%TD*%
D22*
%TO.N,VCC*%
%TO.C,D10*%
X120080000Y-63500000D03*
D23*
%TO.N,Net-(D10-A)*%
X109920000Y-63500000D03*
%TD*%
D22*
%TO.N,VCC*%
%TO.C,D9*%
X120080000Y-60000000D03*
D23*
%TO.N,Net-(D9-A)*%
X109920000Y-60000000D03*
%TD*%
D20*
%TO.N,Net-(D9-A)*%
%TO.C,K2*%
X89875000Y-47700000D03*
D21*
%TO.N,/Board-PLC4UNI-G1w/COM_A_RLY*%
X79715000Y-47700000D03*
%TO.N,/Board-PLC4UNI-G1w/NO_A_RLY*%
X72095000Y-47700000D03*
%TO.N,unconnected-(K2-Pad4)*%
X74635000Y-55320000D03*
%TO.N,VCC*%
X89875000Y-55320000D03*
%TD*%
D24*
%TO.N,+24V*%
%TO.C,J2*%
X70500000Y-110500000D03*
D16*
%TO.N,GND*%
X75500000Y-110500000D03*
%TO.N,/Board-PLC4UNI-G1w/4-20mA_Input*%
X80500000Y-110500000D03*
%TO.N,GND*%
X85500000Y-110500000D03*
%TO.N,/Board-PLC4UNI-G1w/1_NPN_IN*%
X90500000Y-110500000D03*
%TO.N,/Board-PLC4UNI-G1w/2_NPN_IN*%
X95500000Y-110500000D03*
%TO.N,/Board-PLC4UNI-G1w/3_NPN_IN*%
X100500000Y-110500000D03*
%TO.N,/Board-PLC4UNI-G1w/4_NPN_IN*%
X105500000Y-110500000D03*
%TO.N,/Board-PLC4UNI-G1w/0-10_Voltage_Input*%
X110500000Y-110500000D03*
%TO.N,/Board-PLC4UNI-G1w/1_PNP_IN*%
X115500000Y-110500000D03*
%TO.N,/Board-PLC4UNI-G1w/2_PNP_IN*%
X120500000Y-110500000D03*
%TO.N,/Board-PLC4UNI-G1w/3_PNP_IN*%
X125500000Y-110500000D03*
%TO.N,/Board-PLC4UNI-G1w/4_PNP_IN*%
X130500000Y-110500000D03*
%TO.N,GND*%
X135500000Y-110500000D03*
%TO.N,unconnected-(J2-Pin_15-Pad15)*%
X140500000Y-110500000D03*
%TO.N,unconnected-(J2-Pin_16-Pad16)*%
X145500000Y-110500000D03*
%TO.N,unconnected-(J2-Pin_17-Pad17)*%
X150500000Y-110500000D03*
%TO.N,unconnected-(J2-Pin_18-Pad18)*%
X155500000Y-110500000D03*
%TD*%
D12*
%TO.N,Net-(Q4-B)*%
%TO.C,Q4*%
X78540000Y-59050000D03*
D13*
%TO.N,Net-(D9-A)*%
X76000000Y-59050000D03*
%TO.N,GND*%
X73460000Y-59050000D03*
%TD*%
D10*
%TO.N,/Board-PLC4UNI-G1w/2_NPN_OUT*%
%TO.C,Q1*%
X158000000Y-56000000D03*
D11*
%TO.N,Net-(Q1-B)*%
X156730000Y-54730000D03*
%TO.N,VCC*%
X155460000Y-56000000D03*
%TD*%
D10*
%TO.N,/Board-PLC4UNI-G1w/4_NPN_OUT*%
%TO.C,Q8*%
X124085276Y-49315276D03*
D11*
%TO.N,Net-(Q8-B)*%
X122815276Y-48045276D03*
%TO.N,VCC*%
X121545276Y-49315276D03*
%TD*%
D25*
%TO.N,N/C*%
%TO.C,J4*%
X130960000Y-64500000D03*
D26*
X133500000Y-64500000D03*
X136040000Y-64500000D03*
%TD*%
D27*
%TO.N,*%
X140000000Y-53000000D03*
%TO.N,+3.3V*%
X101603548Y-91765032D03*
X143000000Y-63500000D03*
X153000000Y-87000000D03*
X74500000Y-87000000D03*
X111500000Y-77675000D03*
X153000000Y-68500000D03*
X123000000Y-88000000D03*
X153000000Y-74500000D03*
X153000000Y-79000000D03*
X153000000Y-81500000D03*
X124162943Y-89162943D03*
X147500000Y-94000000D03*
X112500000Y-80234600D03*
X141206000Y-61595000D03*
%TO.N,GND*%
X105187500Y-63365000D03*
X126000000Y-100000000D03*
X138000000Y-50000000D03*
X135000000Y-91560600D03*
X138500000Y-55000000D03*
X150000000Y-89230000D03*
X84735000Y-97230000D03*
X135137500Y-103950000D03*
X117500000Y-94000000D03*
X139500000Y-69415400D03*
X75460000Y-98500000D03*
X71240000Y-84750000D03*
X130050000Y-96000000D03*
X137730000Y-74735000D03*
X139500000Y-67500000D03*
X138000000Y-82500000D03*
X130500000Y-93000000D03*
X114235000Y-76230000D03*
X150000000Y-91500000D03*
X114000000Y-84517000D03*
X72000000Y-56000000D03*
X140000000Y-45000000D03*
X150000000Y-76500000D03*
X137730000Y-84265000D03*
X71240000Y-67250000D03*
X147775000Y-71500000D03*
X117500000Y-99000000D03*
X148861793Y-73138206D03*
X117735000Y-100230000D03*
X106534800Y-68000000D03*
X79500000Y-43000000D03*
X130000000Y-100525000D03*
X139500000Y-69415400D03*
%TO.N,Net-(U1-EN)*%
X74419800Y-86000000D03*
X80026079Y-88086800D03*
X76000000Y-86003202D03*
X77972381Y-87027619D03*
X83000000Y-88500000D03*
%TO.N,/Board-PLC4UNI-G1w/0-10_Input/Voltage_Input_toESP*%
X107500000Y-99500000D03*
X80130000Y-84750000D03*
X110500000Y-102000000D03*
%TO.N,/Board-PLC4UNI-G1w/4-20mA_Input/4-20mA_toESP_IN*%
X146225000Y-70500000D03*
X85500000Y-78000000D03*
X144500000Y-73500000D03*
X150500000Y-67000000D03*
X130500000Y-78500000D03*
X145825000Y-58500000D03*
X103500000Y-99000000D03*
X149091786Y-60591786D03*
%TO.N,Net-(D17-A)*%
X100950000Y-81500000D03*
X94000000Y-85000000D03*
%TO.N,/Board-PLC4UNI-G1w/1_PNP_OUT*%
X134641135Y-46141135D03*
X134500000Y-51000000D03*
%TO.N,/Board-PLC4UNI-G1w/2_PNP_OUT*%
X153712500Y-98000000D03*
X149000000Y-97500000D03*
%TO.N,/Board-PLC4UNI-G1w/3_PNP_OUT*%
X149000000Y-77500000D03*
X158500000Y-77000000D03*
%TO.N,VCC*%
X98812500Y-64635000D03*
X102000000Y-63500000D03*
X105150000Y-78000000D03*
X95500000Y-101500000D03*
X110000000Y-72136200D03*
X137000000Y-87500000D03*
X106820200Y-102175000D03*
X111500000Y-71825000D03*
X139137500Y-48550000D03*
X141000000Y-87500000D03*
X82000000Y-98175000D03*
X143000000Y-85500000D03*
X91000000Y-101500000D03*
X109500000Y-74000000D03*
X115325000Y-101500000D03*
X130000000Y-84675000D03*
X78500000Y-103000000D03*
X108000000Y-75500000D03*
X155825000Y-94500000D03*
%TO.N,/Board-PLC4UNI-G1w/4_20Output*%
X106000000Y-82500000D03*
%TO.N,/Board-PLC4UNI-G1w/PLC4UNI_CPU/USB-*%
X107500000Y-77500000D03*
X86964578Y-86035422D03*
X131500000Y-55000000D03*
X120938799Y-65645168D03*
X123000000Y-64000000D03*
X136862500Y-50450000D03*
X115000000Y-68500000D03*
X134356815Y-52143185D03*
X103000000Y-81000000D03*
X129575423Y-56424576D03*
%TO.N,/Board-PLC4UNI-G1w/PLC4UNI_CPU/USB+*%
X127500000Y-56500000D03*
X94500000Y-76000000D03*
X92500000Y-78000000D03*
X105000000Y-75500000D03*
X136862500Y-48550000D03*
X90500000Y-82500000D03*
X138000000Y-49000000D03*
X118500000Y-62000000D03*
X140000000Y-49500000D03*
%TO.N,/Board-PLC4UNI-G1w/3_NPN_OUT*%
X142000000Y-85212217D03*
%TO.N,/Board-PLC4UNI-G1w/1_NPN_OUT*%
X110675000Y-100000000D03*
%TO.N,/Board-PLC4UNI-G1w/2_NPN_OUT*%
X125000000Y-36500000D03*
%TO.N,/Board-PLC4UNI-G1w/4_NPN_OUT*%
X124000000Y-47000000D03*
%TO.N,/Board-PLC4UNI-G1w/4-20mA_Input*%
X161000000Y-93000000D03*
X158000000Y-70500000D03*
X161382935Y-82986870D03*
X145500000Y-64500000D03*
X144175000Y-58500000D03*
X154500000Y-66500000D03*
%TO.N,/Board-PLC4UNI-G1w/3_PNP_IN*%
X95325000Y-102500000D03*
%TO.N,/Board-PLC4UNI-G1w/2_PNP_IN*%
X135000000Y-84825000D03*
X132500000Y-87500000D03*
%TO.N,/Board-PLC4UNI-G1w/0-10_Voltage_Input*%
X111000000Y-103825000D03*
%TO.N,/Board-PLC4UNI-G1w/4_PNP_IN*%
X97000000Y-96325000D03*
%TO.N,/Board-PLC4UNI-G1w/4_NPN_IN*%
X108500000Y-90500000D03*
X107000000Y-92500000D03*
X114235000Y-72770000D03*
X109000000Y-86500000D03*
%TO.N,/Board-PLC4UNI-G1w/1_NPN_IN*%
X95500000Y-105500000D03*
X91500000Y-109500000D03*
X106000000Y-91000000D03*
X105000000Y-93500000D03*
X115000000Y-83500000D03*
X118500000Y-83000000D03*
%TO.N,/Board-PLC4UNI-G1w/3_NPN_IN*%
X129000000Y-80500000D03*
X102000000Y-109000000D03*
X124000000Y-90500000D03*
X124000000Y-85000000D03*
X127087400Y-82500000D03*
X117500000Y-105500000D03*
%TO.N,/Board-PLC4UNI-G1w/2_NPN_IN*%
X102000000Y-105000000D03*
%TO.N,/Board-PLC4UNI-G1w/PLC4UNI_CPU/FROMESP_OUT_IN-NPN_B*%
X88500000Y-86500000D03*
X92500000Y-88500000D03*
X100675000Y-91000000D03*
X90500000Y-88000000D03*
X79000000Y-83496798D03*
X94000000Y-89000000D03*
%TO.N,/Board-PLC4UNI-G1w/PLC4UNI_CPU/FROMESP_OUT_IN-NPN_C*%
X86000000Y-64000000D03*
X136759999Y-68725015D03*
%TO.N,/Board-PLC4UNI-G1w/PLC4UNI_CPU/FROMESP_OUT_IN-PNP_A*%
X77500000Y-98000000D03*
%TO.N,/Board-PLC4UNI-G1w/PLC4UNI_CPU/FROMESP_OUT_IN-PNP_B*%
X76966179Y-82533821D03*
X112500000Y-93000000D03*
X140018207Y-84516793D03*
X87000000Y-83000000D03*
X78500000Y-81500000D03*
X116500000Y-92000000D03*
%TO.N,/Board-PLC4UNI-G1w/PLC4UNI_CPU/FROMESP_OUT_IN-PNP_C*%
X79168000Y-87332000D03*
X80480236Y-98480236D03*
%TO.N,Net-(OC7-Pad4)*%
X156500000Y-65000000D03*
X156500000Y-61175000D03*
%TO.N,Net-(Q9-G)*%
X150000000Y-80500000D03*
X147175000Y-79000000D03*
%TO.N,/Board-PLC4UNI-G1w/PLC4UNI_CPU/FROMESP_OUT_IN-NPN_D*%
X120528304Y-77111764D03*
X112500000Y-83015400D03*
X90000000Y-85000000D03*
X89018460Y-84018460D03*
X121500000Y-73500000D03*
X115000000Y-80500000D03*
X90570844Y-87000000D03*
%TO.N,Net-(OC13-Pad1)*%
X96683600Y-94500000D03*
X94265000Y-93770000D03*
%TO.N,Net-(OC14-Pad1)*%
X123500000Y-65500000D03*
X121325000Y-67500000D03*
%TO.N,/Board-PLC4UNI-G1w/PLC4UNI_CPU/FROMESP_OUT_IN-NPN_A*%
X102000000Y-72500000D03*
X107500000Y-79000000D03*
X90000000Y-68005200D03*
%TO.N,Net-(Q2-B)*%
X113675000Y-101500000D03*
%TO.N,Net-(Q4-B)*%
X82000000Y-58500000D03*
%TO.N,Net-(Q6-B)*%
X83026079Y-61086800D03*
%TO.N,/Board-PLC4UNI-G1w/PLC4UNI_CPU/FROMESP_IN_OUT-NPN_A*%
X106000000Y-88253200D03*
X87000000Y-80000000D03*
X90641200Y-84500000D03*
X102500000Y-88500000D03*
X123500000Y-96000000D03*
%TO.N,/Board-PLC4UNI-G1w/PLC4UNI_CPU/FROMESP_IN_OUT-PNP_A*%
X93500000Y-79500000D03*
X107000000Y-84500000D03*
X118500000Y-87175000D03*
X102000000Y-80000000D03*
%TO.N,/Board-PLC4UNI-G1w/PLC4UNI_CPU/FROMESP_IN_OUT-NPN_B*%
X139000000Y-77500000D03*
X107892736Y-74392736D03*
X93500000Y-75059800D03*
X142000000Y-76500000D03*
X129960685Y-74539316D03*
X136500000Y-77500000D03*
X107035422Y-74535422D03*
%TO.N,/Board-PLC4UNI-G1w/PLC4UNI_CPU/FROMESP_IN_OUT-NPN_C*%
X88000000Y-77000000D03*
X159563735Y-87175000D03*
X85500000Y-112500000D03*
X159463065Y-90963065D03*
%TO.N,/Board-PLC4UNI-G1w/PLC4UNI_CPU/FROMESP_IN_OUT-PNP_B*%
X92000000Y-98500000D03*
X92000000Y-96000000D03*
%TO.N,/Board-PLC4UNI-G1w/PLC4UNI_CPU/FROMESP_IN_OUT-PNP_C*%
X143675000Y-81500000D03*
X85500000Y-82500000D03*
%TO.N,/Board-PLC4UNI-G1w/0-10V_Output/SDA_V*%
X99000000Y-72605655D03*
X97227895Y-69439024D03*
X107656687Y-79915400D03*
X95912500Y-68365000D03*
X98500000Y-72000000D03*
X86500000Y-65000000D03*
X91000000Y-72000000D03*
%TO.N,/Board-PLC4UNI-G1w/0-10V_Output/SEL*%
X101500000Y-67500000D03*
X87000000Y-69000000D03*
X94500000Y-68500000D03*
%TO.N,/Board-PLC4UNI-G1w/PLC4UNI_CPU/FROMESP_IN_OUT-NPN_D*%
X119357264Y-68857264D03*
X91486015Y-76484600D03*
X116500000Y-67000000D03*
X111000000Y-68000000D03*
X94482798Y-73464455D03*
%TO.N,/Board-PLC4UNI-G1w/0-10V_Output/SCLK_V*%
X112534800Y-76500000D03*
X98000000Y-68000000D03*
X101000000Y-71814600D03*
X98000000Y-68000000D03*
X87000000Y-66000000D03*
%TO.N,Net-(R54-Pad1)*%
X90819000Y-67500000D03*
%TO.N,Net-(USB1-CC1)*%
X140168500Y-55380200D03*
%TO.N,/Board-PLC4UNI-G1w/OUT_RLY_A/RLY_A_INR*%
X82000000Y-65000000D03*
X103500000Y-64000000D03*
%TO.N,/Board-PLC4UNI-G1w/PLC4UNI_CPU/ESP32_UART_A*%
X141206000Y-65405000D03*
X90000000Y-89000000D03*
X125000000Y-80000000D03*
X136500000Y-66000000D03*
X132000000Y-70000000D03*
X119000000Y-84500000D03*
%TO.N,/Board-PLC4UNI-G1w/PLC4UNI_CPU/ESP32_UART_B*%
X85500000Y-86003202D03*
X104000000Y-85000000D03*
X108090400Y-81500000D03*
X103500000Y-89319000D03*
X141206000Y-64135000D03*
X104000000Y-82000000D03*
%TO.N,/Board-PLC4UNI-G1w/OUT_RLY_B/RLY_B_INR*%
X91000000Y-73000000D03*
X86000000Y-72500000D03*
%TD*%
D28*
%TO.N,*%
X146550000Y-47180000D02*
X142370000Y-47180000D01*
D29*
X140000000Y-51705000D02*
X142370000Y-49335000D01*
D28*
X146550000Y-55820000D02*
X142370000Y-55820000D01*
D29*
X142370000Y-49335000D02*
X142370000Y-47180000D01*
X140000000Y-53000000D02*
X140000000Y-51705000D01*
D30*
%TO.N,+3.3V*%
X74500000Y-87000000D02*
X76500000Y-87000000D01*
X81265032Y-91765032D02*
X101603548Y-91765032D01*
X76500000Y-87000000D02*
X81265032Y-91765032D01*
D31*
%TO.N,GND*%
X92000000Y-43000000D02*
X79500000Y-43000000D01*
X135500000Y-104312500D02*
X135137500Y-103950000D01*
X133425000Y-103950000D02*
X130000000Y-100525000D01*
D28*
X73460000Y-59050000D02*
X73460000Y-57460000D01*
D31*
X75460000Y-98500000D02*
X77960000Y-101000000D01*
X84735000Y-97265000D02*
X84735000Y-97230000D01*
X141584600Y-71500000D02*
X139500000Y-69415400D01*
X135137500Y-103950000D02*
X133425000Y-103950000D01*
D30*
X78260000Y-74270000D02*
X71240000Y-67250000D01*
D31*
X75500000Y-110500000D02*
X75500000Y-98540000D01*
D30*
X77560000Y-78200000D02*
X71240000Y-84520000D01*
D28*
X145000000Y-40000000D02*
X140000000Y-45000000D01*
D31*
X135500000Y-110500000D02*
X135500000Y-104312500D01*
D30*
X71240000Y-84520000D02*
X71240000Y-84750000D01*
D28*
X73460000Y-57460000D02*
X72000000Y-56000000D01*
D31*
X77960000Y-101000000D02*
X81000000Y-101000000D01*
D30*
X78260000Y-76100000D02*
X78260000Y-74270000D01*
D31*
X85500000Y-110500000D02*
X83540200Y-112459800D01*
X83540200Y-112459800D02*
X77459800Y-112459800D01*
X81000000Y-101000000D02*
X84735000Y-97265000D01*
X95000000Y-40000000D02*
X92000000Y-43000000D01*
X147775000Y-71500000D02*
X141584600Y-71500000D01*
X77459800Y-112459800D02*
X75500000Y-110500000D01*
X75500000Y-98540000D02*
X75460000Y-98500000D01*
D30*
%TO.N,Net-(U1-EN)*%
X77972381Y-87027619D02*
X77972381Y-87208638D01*
X78853943Y-88090200D02*
X80022679Y-88090200D01*
X77972381Y-87208638D02*
X78853943Y-88090200D01*
X80022679Y-88090200D02*
X80026079Y-88086800D01*
%TO.N,/Board-PLC4UNI-G1w/0-10_Input/Voltage_Input_toESP*%
X107500000Y-99500000D02*
X107500000Y-94712217D01*
X102787783Y-90000000D02*
X83000000Y-90000000D01*
X83000000Y-89988464D02*
X80130000Y-87118464D01*
X83000000Y-90000000D02*
X83000000Y-89988464D01*
X107500000Y-94712217D02*
X102787783Y-90000000D01*
X80130000Y-87118464D02*
X80130000Y-84750000D01*
D31*
%TO.N,/Board-PLC4UNI-G1w/4-20mA_Input/4-20mA_toESP_IN*%
X141215941Y-78500000D02*
X144500000Y-75215941D01*
X130500000Y-78500000D02*
X141215941Y-78500000D01*
X144500000Y-75215941D02*
X144500000Y-73500000D01*
%TO.N,Net-(D9-A)*%
X95500000Y-63000000D02*
X79417900Y-63000000D01*
D28*
X86716300Y-47700000D02*
X89875000Y-47700000D01*
D31*
X109920000Y-60000000D02*
X98500000Y-60000000D01*
X98500000Y-60000000D02*
X95500000Y-63000000D01*
X76000000Y-59582100D02*
X76000000Y-59050000D01*
X79417900Y-63000000D02*
X76000000Y-59582100D01*
D28*
X76000000Y-58416300D02*
X86716300Y-47700000D01*
X76000000Y-59050000D02*
X76000000Y-58416300D01*
D30*
%TO.N,VCC*%
X143118752Y-94758200D02*
X155566800Y-94758200D01*
D31*
X115454724Y-101370276D02*
X115325000Y-101500000D01*
D30*
X147462426Y-46221800D02*
X141423101Y-46221800D01*
X139137500Y-48507401D02*
X139137500Y-48550000D01*
D31*
X121545276Y-47675071D02*
X124220347Y-45000000D01*
X115500000Y-71500000D02*
X112000000Y-71500000D01*
X120080000Y-66920000D02*
X115500000Y-71500000D01*
D30*
X155460000Y-54219374D02*
X147462426Y-46221800D01*
D31*
X120080000Y-63500000D02*
X120080000Y-66920000D01*
D30*
X141423101Y-46221800D02*
X140322450Y-47322450D01*
X140322450Y-47322450D02*
X139137500Y-48507401D01*
X131825000Y-86500000D02*
X130000000Y-84675000D01*
D31*
X95500000Y-101500000D02*
X96000000Y-101500000D01*
D30*
X137000000Y-87500000D02*
X136000000Y-86500000D01*
D31*
X96000000Y-101500000D02*
X96675000Y-102175000D01*
X124220347Y-45000000D02*
X138000000Y-45000000D01*
X97125000Y-48180000D02*
X89985000Y-55320000D01*
D30*
X140815276Y-92454724D02*
X143118752Y-94758200D01*
D31*
X138000000Y-45000000D02*
X140322450Y-47322450D01*
X121545276Y-49315276D02*
X121545276Y-47675071D01*
X115454724Y-95184724D02*
X115454724Y-101370276D01*
X112000000Y-71500000D02*
X111675000Y-71825000D01*
X120080000Y-60000000D02*
X120080000Y-63500000D01*
D30*
X136000000Y-86500000D02*
X131825000Y-86500000D01*
D31*
X96675000Y-102175000D02*
X106820200Y-102175000D01*
D30*
X155460000Y-56000000D02*
X155460000Y-54219374D01*
X155566800Y-94758200D02*
X155825000Y-94500000D01*
D31*
X111675000Y-71825000D02*
X111500000Y-71825000D01*
X89985000Y-55320000D02*
X89875000Y-55320000D01*
D32*
%TO.N,Net-(D10-A)*%
X94650000Y-55800000D02*
X89500000Y-60950000D01*
X97125000Y-55800000D02*
X94650000Y-55800000D01*
D30*
%TO.N,/Board-PLC4UNI-G1w/PLC4UNI_CPU/USB-*%
X96185943Y-80314057D02*
X100836314Y-80314057D01*
X88429156Y-87500000D02*
X89000000Y-87500000D01*
X101522257Y-81000000D02*
X103000000Y-81000000D01*
X86964578Y-86035422D02*
X88429156Y-87500000D01*
X100836314Y-80314057D02*
X101522257Y-81000000D01*
X89000000Y-87500000D02*
X96185943Y-80314057D01*
%TO.N,/Board-PLC4UNI-G1w/PLC4UNI_CPU/USB+*%
X135450000Y-48550000D02*
X136862500Y-48550000D01*
X105000000Y-75500000D02*
X118500000Y-62000000D01*
X127500000Y-56500000D02*
X135450000Y-48550000D01*
D32*
X90500000Y-82500000D02*
X90500000Y-80000000D01*
X90500000Y-80000000D02*
X92500000Y-78000000D01*
D31*
%TO.N,/Board-PLC4UNI-G1w/COM_B_RLY*%
X116500000Y-43500000D02*
X120000000Y-40000000D01*
X107285000Y-48715000D02*
X112500000Y-43500000D01*
X112500000Y-43500000D02*
X116500000Y-43500000D01*
X107285000Y-55800000D02*
X107285000Y-48715000D01*
%TO.N,/Board-PLC4UNI-G1w/1_NPN_OUT*%
X112914724Y-97760276D02*
X110675000Y-100000000D01*
X112914724Y-95184724D02*
X112914724Y-97760276D01*
%TO.N,/Board-PLC4UNI-G1w/COM_A_RLY*%
X81424800Y-45990200D02*
X104009800Y-45990200D01*
X79715000Y-47700000D02*
X81424800Y-45990200D01*
X104009800Y-45990200D02*
X110000000Y-40000000D01*
%TO.N,/Board-PLC4UNI-G1w/NO_B_RLY*%
X125000000Y-40000000D02*
X124000000Y-40000000D01*
X114905000Y-55800000D02*
X114905000Y-49095000D01*
X121500000Y-42500000D02*
X122500000Y-41500000D01*
X124000000Y-40000000D02*
X121500000Y-42500000D01*
X114905000Y-49095000D02*
X121500000Y-42500000D01*
%TO.N,/Board-PLC4UNI-G1w/NO_A_RLY*%
X75295000Y-44500000D02*
X72095000Y-47700000D01*
X105000000Y-40000000D02*
X100500000Y-44500000D01*
X100500000Y-44500000D02*
X75295000Y-44500000D01*
D28*
%TO.N,/Board-PLC4UNI-G1w/3_PNP_IN*%
X123489400Y-112510600D02*
X94510600Y-112510600D01*
X93000000Y-105000000D02*
X95325000Y-102675000D01*
X94510600Y-112510600D02*
X93000000Y-111000000D01*
X95325000Y-102675000D02*
X95325000Y-102500000D01*
X93000000Y-111000000D02*
X93000000Y-105000000D01*
X125500000Y-110500000D02*
X123489400Y-112510600D01*
%TO.N,/Board-PLC4UNI-G1w/0-10_Voltage_Input*%
X110500000Y-110500000D02*
X110500000Y-104325000D01*
X110500000Y-104325000D02*
X111000000Y-103825000D01*
%TO.N,/Board-PLC4UNI-G1w/4_PNP_IN*%
X127000000Y-107000000D02*
X116787783Y-107000000D01*
X101466200Y-100966200D02*
X97000000Y-96500000D01*
X110753983Y-100966200D02*
X101466200Y-100966200D01*
X97000000Y-96500000D02*
X97000000Y-96325000D01*
X116787783Y-107000000D02*
X110753983Y-100966200D01*
X130500000Y-110500000D02*
X127000000Y-107000000D01*
%TO.N,/Board-PLC4UNI-G1w/2_NPN_IN*%
X95500000Y-110500000D02*
X101000000Y-105000000D01*
X101000000Y-105000000D02*
X102000000Y-105000000D01*
D30*
%TO.N,/Board-PLC4UNI-G1w/PLC4UNI_CPU/FROMESP_OUT_IN-NPN_D*%
X94536129Y-85536128D02*
X96814057Y-83258200D01*
X93072257Y-87000000D02*
X94536129Y-85536128D01*
X90570844Y-87000000D02*
X93072257Y-87000000D01*
X89018460Y-84018460D02*
X90000000Y-85000000D01*
X112257200Y-83258200D02*
X112500000Y-83015400D01*
X96814057Y-83258200D02*
X112257200Y-83258200D01*
D31*
%TO.N,Net-(Q2-B)*%
X114184724Y-96454724D02*
X114184724Y-100990276D01*
X114184724Y-100990276D02*
X113675000Y-101500000D01*
D32*
%TO.N,Net-(Q4-B)*%
X78540000Y-58960000D02*
X79000000Y-58500000D01*
X78540000Y-59050000D02*
X78540000Y-58960000D01*
X79000000Y-58500000D02*
X82000000Y-58500000D01*
%TO.N,Net-(Q6-B)*%
X83162879Y-60950000D02*
X83026079Y-61086800D01*
X86960000Y-60950000D02*
X83162879Y-60950000D01*
D30*
%TO.N,/Board-PLC4UNI-G1w/PLC4UNI_CPU/FROMESP_IN_OUT-PNP_C*%
X102759943Y-77241800D02*
X107776343Y-82258200D01*
X86000000Y-82500000D02*
X91258200Y-77241800D01*
X118241800Y-84185943D02*
X118685943Y-83741800D01*
X116314057Y-82258200D02*
X118241800Y-84185943D01*
X91258200Y-77241800D02*
X102759943Y-77241800D01*
X118685943Y-83741800D02*
X137180943Y-83741800D01*
X107776343Y-82258200D02*
X116314057Y-82258200D01*
X85500000Y-82500000D02*
X86000000Y-82500000D01*
X137180943Y-83741800D02*
X137422743Y-83500000D01*
X141675000Y-83500000D02*
X143675000Y-81500000D01*
X137422743Y-83500000D02*
X141675000Y-83500000D01*
D31*
%TO.N,/Board-PLC4UNI-G1w/PLC4UNI_CPU/FROMESP_IN_OUT-NPN_D*%
X105535545Y-73464455D02*
X111000000Y-68000000D01*
X94482798Y-73464455D02*
X105535545Y-73464455D01*
%TO.N,/Board-PLC4UNI-G1w/0-10V_Output/SCLK_V*%
X93500000Y-66000000D02*
X96000000Y-66000000D01*
X93500000Y-73776228D02*
X93500000Y-66000000D01*
X112462800Y-76428000D02*
X102603000Y-76428000D01*
X101675000Y-75500000D02*
X95223772Y-75500000D01*
X95223772Y-75500000D02*
X93500000Y-73776228D01*
X112534800Y-76500000D02*
X112462800Y-76428000D01*
X102603000Y-76428000D02*
X101675000Y-75500000D01*
X87000000Y-66000000D02*
X93500000Y-66000000D01*
X96000000Y-66000000D02*
X98000000Y-68000000D01*
D32*
%TO.N,Net-(USB1-CC1)*%
X140168500Y-55380200D02*
X140168500Y-54036500D01*
X140168500Y-54036500D02*
X141455000Y-52750000D01*
D30*
%TO.N,/Board-PLC4UNI-G1w/PLC4UNI_CPU/ESP32_UART_A*%
X116500000Y-87000000D02*
X119000000Y-84500000D01*
D32*
X116318000Y-87182000D02*
X116500000Y-87000000D01*
X94853506Y-87182000D02*
X116318000Y-87182000D01*
X92853506Y-89182000D02*
X94853506Y-87182000D01*
X90182000Y-89182000D02*
X92853506Y-89182000D01*
X90000000Y-89000000D02*
X90182000Y-89182000D01*
D30*
%TO.N,/Board-PLC4UNI-G1w/PLC4UNI_CPU/ESP32_UART_B*%
X138741800Y-67814057D02*
X138741800Y-66599200D01*
X125055857Y-81500000D02*
X138741800Y-67814057D01*
X138741800Y-66599200D02*
X141206000Y-64135000D01*
X108090400Y-81500000D02*
X125055857Y-81500000D01*
%TD*%
M02*
