%TF.GenerationSoftware,KiCad,Pcbnew,9.0.5*%
%TF.CreationDate,2025-12-09T21:40:52-04:00*%
%TF.ProjectId,PLC4UNI,504c4334-554e-4492-9e6b-696361645f70,rev?*%
%TF.SameCoordinates,Original*%
%TF.FileFunction,Soldermask,Top*%
%TF.FilePolarity,Negative*%
%FSLAX46Y46*%
G04 Gerber Fmt 4.6, Leading zero omitted, Abs format (unit mm)*
G04 Created by KiCad (PCBNEW 9.0.5) date 2025-12-09 21:40:52*
%MOMM*%
%LPD*%
G01*
G04 APERTURE LIST*
G04 Aperture macros list*
%AMRoundRect*
0 Rectangle with rounded corners*
0 $1 Rounding radius*
0 $2 $3 $4 $5 $6 $7 $8 $9 X,Y pos of 4 corners*
0 Add a 4 corners polygon primitive as box body*
4,1,4,$2,$3,$4,$5,$6,$7,$8,$9,$2,$3,0*
0 Add four circle primitives for the rounded corners*
1,1,$1+$1,$2,$3*
1,1,$1+$1,$4,$5*
1,1,$1+$1,$6,$7*
1,1,$1+$1,$8,$9*
0 Add four rect primitives between the rounded corners*
20,1,$1+$1,$2,$3,$4,$5,0*
20,1,$1+$1,$4,$5,$6,$7,0*
20,1,$1+$1,$6,$7,$8,$9,0*
20,1,$1+$1,$8,$9,$2,$3,0*%
G04 Aperture macros list end*
%ADD10RoundRect,0.200000X-0.250000X-0.200000X0.250000X-0.200000X0.250000X0.200000X-0.250000X0.200000X0*%
%ADD11RoundRect,0.200000X-0.275000X0.200000X-0.275000X-0.200000X0.275000X-0.200000X0.275000X0.200000X0*%
%ADD12R,1.300000X0.700000*%
%ADD13R,0.800000X0.900000*%
%ADD14RoundRect,0.218750X-0.256250X0.218750X-0.256250X-0.218750X0.256250X-0.218750X0.256250X0.218750X0*%
%ADD15RoundRect,0.200000X0.200000X0.275000X-0.200000X0.275000X-0.200000X-0.275000X0.200000X-0.275000X0*%
%ADD16RoundRect,0.225000X-0.225000X-0.250000X0.225000X-0.250000X0.225000X0.250000X-0.225000X0.250000X0*%
%ADD17C,2.200000*%
%ADD18RoundRect,0.250000X0.412500X0.650000X-0.412500X0.650000X-0.412500X-0.650000X0.412500X-0.650000X0*%
%ADD19RoundRect,0.250000X1.000000X0.650000X-1.000000X0.650000X-1.000000X-0.650000X1.000000X-0.650000X0*%
%ADD20RoundRect,0.200000X-0.200000X-0.275000X0.200000X-0.275000X0.200000X0.275000X-0.200000X0.275000X0*%
%ADD21RoundRect,0.225000X0.225000X0.250000X-0.225000X0.250000X-0.225000X-0.250000X0.225000X-0.250000X0*%
%ADD22O,1.600000X1.200000*%
%ADD23O,1.200000X1.200000*%
%ADD24RoundRect,0.100000X0.100000X-0.130000X0.100000X0.130000X-0.100000X0.130000X-0.100000X-0.130000X0*%
%ADD25RoundRect,0.250000X0.475000X-0.250000X0.475000X0.250000X-0.475000X0.250000X-0.475000X-0.250000X0*%
%ADD26R,1.905000X2.000000*%
%ADD27O,1.905000X2.000000*%
%ADD28RoundRect,0.200000X0.275000X-0.200000X0.275000X0.200000X-0.275000X0.200000X-0.275000X-0.200000X0*%
%ADD29RoundRect,0.250000X-0.640000X0.750000X-0.640000X-0.750000X0.640000X-0.750000X0.640000X0.750000X0*%
%ADD30RoundRect,0.200000X-0.200000X0.250000X-0.200000X-0.250000X0.200000X-0.250000X0.200000X0.250000X0*%
%ADD31RoundRect,0.225000X0.250000X-0.225000X0.250000X0.225000X-0.250000X0.225000X-0.250000X-0.225000X0*%
%ADD32RoundRect,0.250000X-0.650000X1.000000X-0.650000X-1.000000X0.650000X-1.000000X0.650000X1.000000X0*%
%ADD33RoundRect,0.250000X0.750000X0.640000X-0.750000X0.640000X-0.750000X-0.640000X0.750000X-0.640000X0*%
%ADD34RoundRect,0.218750X-0.218750X-0.256250X0.218750X-0.256250X0.218750X0.256250X-0.218750X0.256250X0*%
%ADD35O,1.200000X1.600000*%
%ADD36RoundRect,0.250001X1.149999X1.149999X-1.149999X1.149999X-1.149999X-1.149999X1.149999X-1.149999X0*%
%ADD37C,2.800000*%
%ADD38RoundRect,0.250000X-0.750000X-0.640000X0.750000X-0.640000X0.750000X0.640000X-0.750000X0.640000X0*%
%ADD39R,0.510000X1.100000*%
%ADD40RoundRect,0.200000X0.200000X-0.250000X0.200000X0.250000X-0.200000X0.250000X-0.200000X-0.250000X0*%
%ADD41RoundRect,0.150000X0.662500X0.150000X-0.662500X0.150000X-0.662500X-0.150000X0.662500X-0.150000X0*%
%ADD42RoundRect,0.150000X-0.512500X-0.150000X0.512500X-0.150000X0.512500X0.150000X-0.512500X0.150000X0*%
%ADD43RoundRect,0.225000X-0.250000X0.225000X-0.250000X-0.225000X0.250000X-0.225000X0.250000X0.225000X0*%
%ADD44RoundRect,0.100000X-0.100000X0.130000X-0.100000X-0.130000X0.100000X-0.130000X0.100000X0.130000X0*%
%ADD45R,0.900000X1.500000*%
%ADD46R,1.500000X0.900000*%
%ADD47C,0.600000*%
%ADD48R,3.900000X3.900000*%
%ADD49C,0.650000*%
%ADD50R,1.450000X0.600000*%
%ADD51R,1.450000X0.300000*%
%ADD52O,2.100000X1.000000*%
%ADD53O,1.600000X1.000000*%
%ADD54RoundRect,0.250000X0.640000X-0.750000X0.640000X0.750000X-0.640000X0.750000X-0.640000X-0.750000X0*%
%ADD55RoundRect,0.218750X0.256250X-0.218750X0.256250X0.218750X-0.256250X0.218750X-0.256250X-0.218750X0*%
%ADD56RoundRect,0.250001X-0.999999X0.499999X-0.999999X-0.499999X0.999999X-0.499999X0.999999X0.499999X0*%
%ADD57RoundRect,0.218750X0.218750X0.256250X-0.218750X0.256250X-0.218750X-0.256250X0.218750X-0.256250X0*%
%ADD58RoundRect,0.237500X-0.237500X0.287500X-0.237500X-0.287500X0.237500X-0.287500X0.237500X0.287500X0*%
%ADD59R,2.300000X2.300000*%
%ADD60C,2.300000*%
%ADD61RoundRect,0.250000X-0.450000X0.262500X-0.450000X-0.262500X0.450000X-0.262500X0.450000X0.262500X0*%
%ADD62RoundRect,0.250000X0.650000X-0.325000X0.650000X0.325000X-0.650000X0.325000X-0.650000X-0.325000X0*%
%ADD63RoundRect,0.249999X0.850001X0.850001X-0.850001X0.850001X-0.850001X-0.850001X0.850001X-0.850001X0*%
%ADD64RoundRect,0.150000X0.150000X-0.662500X0.150000X0.662500X-0.150000X0.662500X-0.150000X-0.662500X0*%
%ADD65RoundRect,0.100000X0.130000X0.100000X-0.130000X0.100000X-0.130000X-0.100000X0.130000X-0.100000X0*%
%ADD66RoundRect,0.250000X0.650000X-1.000000X0.650000X1.000000X-0.650000X1.000000X-0.650000X-1.000000X0*%
%ADD67RoundRect,0.102000X-0.711200X-0.266700X0.711200X-0.266700X0.711200X0.266700X-0.711200X0.266700X0*%
%ADD68RoundRect,0.250000X0.475000X-0.337500X0.475000X0.337500X-0.475000X0.337500X-0.475000X-0.337500X0*%
%ADD69RoundRect,0.250000X-0.450000X0.400000X-0.450000X-0.400000X0.450000X-0.400000X0.450000X0.400000X0*%
%ADD70RoundRect,0.250000X-1.000000X-0.650000X1.000000X-0.650000X1.000000X0.650000X-1.000000X0.650000X0*%
%ADD71RoundRect,0.250001X-1.149999X-1.149999X1.149999X-1.149999X1.149999X1.149999X-1.149999X1.149999X0*%
%ADD72RoundRect,0.162500X-0.650000X-0.162500X0.650000X-0.162500X0.650000X0.162500X-0.650000X0.162500X0*%
%ADD73RoundRect,0.225000X0.225000X0.375000X-0.225000X0.375000X-0.225000X-0.375000X0.225000X-0.375000X0*%
%ADD74RoundRect,0.250000X0.262500X0.450000X-0.262500X0.450000X-0.262500X-0.450000X0.262500X-0.450000X0*%
%ADD75R,1.700000X1.700000*%
%ADD76C,1.700000*%
%ADD77RoundRect,0.250000X0.337500X0.475000X-0.337500X0.475000X-0.337500X-0.475000X0.337500X-0.475000X0*%
%ADD78R,0.700000X1.300000*%
G04 APERTURE END LIST*
D10*
%TO.C,Q5*%
X134500000Y-90550000D03*
X134500000Y-92450000D03*
X136500000Y-91500000D03*
%TD*%
D11*
%TO.C,R25*%
X160000000Y-87175000D03*
X160000000Y-88825000D03*
%TD*%
D12*
%TO.C,C2*%
X128000000Y-96050000D03*
X128000000Y-97950000D03*
%TD*%
D13*
%TO.C,Q10*%
X100950000Y-81500000D03*
X99050000Y-81500000D03*
X100000000Y-83500000D03*
%TD*%
D14*
%TO.C,D5*%
X132000000Y-84712500D03*
X132000000Y-86287500D03*
%TD*%
D15*
%TO.C,R61*%
X114825000Y-85500000D03*
X113175000Y-85500000D03*
%TD*%
D16*
%TO.C,C10*%
X113225000Y-87000000D03*
X114775000Y-87000000D03*
%TD*%
D17*
%TO.C,REF\u002A\u002A*%
X153000000Y-49000000D03*
%TD*%
D18*
%TO.C,C5*%
X86500000Y-88500000D03*
X83375000Y-88500000D03*
%TD*%
D19*
%TO.C,D20*%
X99500000Y-86500000D03*
X95500000Y-86500000D03*
%TD*%
D20*
%TO.C,R6*%
X100675000Y-91000000D03*
X102325000Y-91000000D03*
%TD*%
D21*
%TO.C,C1*%
X135275000Y-100000000D03*
X133725000Y-100000000D03*
%TD*%
D22*
%TO.C,Q2*%
X112914724Y-95184724D03*
D23*
X114184724Y-96454724D03*
X115454724Y-95184724D03*
%TD*%
D24*
%TO.C,R54*%
X83000000Y-61820000D03*
X83000000Y-61180000D03*
%TD*%
D25*
%TO.C,C8*%
X105500000Y-71950000D03*
X105500000Y-70050000D03*
%TD*%
D11*
%TO.C,R47*%
X93000000Y-85175000D03*
X93000000Y-86825000D03*
%TD*%
D26*
%TO.C,Q6*%
X86960000Y-60950000D03*
D27*
X89500000Y-60950000D03*
X92040000Y-60950000D03*
%TD*%
D28*
%TO.C,R55*%
X111500000Y-71825000D03*
X111500000Y-70175000D03*
%TD*%
D11*
%TO.C,R60*%
X111000000Y-102175000D03*
X111000000Y-103825000D03*
%TD*%
D29*
%TO.C,OC5*%
X140270000Y-74735000D03*
X137730000Y-74735000D03*
X137730000Y-84265000D03*
X140270000Y-84265000D03*
%TD*%
D15*
%TO.C,R28*%
X143825000Y-86500000D03*
X142175000Y-86500000D03*
%TD*%
%TO.C,R42*%
X131825000Y-98000000D03*
X130175000Y-98000000D03*
%TD*%
%TO.C,R21*%
X85825000Y-103000000D03*
X84175000Y-103000000D03*
%TD*%
D11*
%TO.C,R5*%
X106000000Y-102175000D03*
X106000000Y-103825000D03*
%TD*%
D30*
%TO.C,Q7*%
X149450000Y-95500000D03*
X147550000Y-95500000D03*
X148500000Y-97500000D03*
%TD*%
D31*
%TO.C,C14*%
X93000000Y-82775000D03*
X93000000Y-81225000D03*
%TD*%
D32*
%TO.C,D14*%
X107500000Y-95500000D03*
X107500000Y-99500000D03*
%TD*%
D33*
%TO.C,OC8*%
X157265000Y-91770000D03*
X157265000Y-89230000D03*
X147735000Y-89230000D03*
X147735000Y-91770000D03*
%TD*%
D28*
%TO.C,R59*%
X127500000Y-52325000D03*
X127500000Y-50675000D03*
%TD*%
D34*
%TO.C,D3*%
X158212500Y-62500000D03*
X159787500Y-62500000D03*
%TD*%
%TO.C,D6*%
X153712500Y-98000000D03*
X155287500Y-98000000D03*
%TD*%
D28*
%TO.C,R27*%
X145500000Y-92325000D03*
X145500000Y-90675000D03*
%TD*%
D35*
%TO.C,Q3*%
X140815276Y-89914724D03*
D23*
X139545276Y-91184724D03*
X140815276Y-92454724D03*
%TD*%
D36*
%TO.C,J1*%
X155000000Y-40000000D03*
D37*
X150000000Y-40000000D03*
X145000000Y-40000000D03*
X140000000Y-40000000D03*
X135000000Y-40000000D03*
X130000000Y-40000000D03*
X125000000Y-40000000D03*
X120000000Y-40000000D03*
X115000000Y-40000000D03*
X110000000Y-40000000D03*
X105000000Y-40000000D03*
X100000000Y-40000000D03*
X95000000Y-40000000D03*
X90000000Y-40000000D03*
X85000000Y-40000000D03*
X80000000Y-40000000D03*
X75000000Y-40000000D03*
X70000000Y-40000000D03*
%TD*%
D28*
%TO.C,R12*%
X135000000Y-84825000D03*
X135000000Y-83175000D03*
%TD*%
D15*
%TO.C,R41*%
X135325000Y-98000000D03*
X133675000Y-98000000D03*
%TD*%
D33*
%TO.C,OC6*%
X94265000Y-99770000D03*
X94265000Y-97230000D03*
X84735000Y-97230000D03*
X84735000Y-99770000D03*
%TD*%
D38*
%TO.C,OC9*%
X120735000Y-89230000D03*
X120735000Y-91770000D03*
X130265000Y-91770000D03*
X130265000Y-89230000D03*
%TD*%
D39*
%TO.C,U3*%
X100000000Y-73450000D03*
X99000000Y-73450000D03*
X98000000Y-73450000D03*
X97000000Y-73450000D03*
X96000000Y-73450000D03*
X96000000Y-78550000D03*
X97000000Y-78550000D03*
X98000000Y-78550000D03*
X99000000Y-78550000D03*
X100000000Y-78550000D03*
%TD*%
D33*
%TO.C,OC15*%
X123765000Y-78770000D03*
X123765000Y-76230000D03*
X114235000Y-76230000D03*
X114235000Y-78770000D03*
%TD*%
D28*
%TO.C,R22*%
X82000000Y-99825000D03*
X82000000Y-98175000D03*
%TD*%
D40*
%TO.C,Q9*%
X157550000Y-79000000D03*
X159450000Y-79000000D03*
X158500000Y-77000000D03*
%TD*%
D24*
%TO.C,R53*%
X82500000Y-59320000D03*
X82500000Y-58680000D03*
%TD*%
%TO.C,R52*%
X80000000Y-88820000D03*
X80000000Y-88180000D03*
%TD*%
D28*
%TO.C,R20*%
X154500000Y-62325000D03*
X154500000Y-60675000D03*
%TD*%
D41*
%TO.C,U18*%
X105187500Y-64635000D03*
X105187500Y-63365000D03*
X98812500Y-63365000D03*
X98812500Y-64635000D03*
%TD*%
D42*
%TO.C,U2*%
X132862500Y-102050000D03*
X132862500Y-103000000D03*
X132862500Y-103950000D03*
X135137500Y-103950000D03*
X135137500Y-103000000D03*
X135137500Y-102050000D03*
%TD*%
D20*
%TO.C,R35*%
X143675000Y-81500000D03*
X145325000Y-81500000D03*
%TD*%
D43*
%TO.C,C15*%
X97000000Y-91225000D03*
X97000000Y-92775000D03*
%TD*%
D15*
%TO.C,R43*%
X103325000Y-73500000D03*
X101675000Y-73500000D03*
%TD*%
%TO.C,R10*%
X115325000Y-103500000D03*
X113675000Y-103500000D03*
%TD*%
D20*
%TO.C,R9*%
X122675000Y-97500000D03*
X124325000Y-97500000D03*
%TD*%
D15*
%TO.C,R13*%
X140825000Y-86500000D03*
X139175000Y-86500000D03*
%TD*%
D44*
%TO.C,R58*%
X83000000Y-93860000D03*
X83000000Y-94500000D03*
%TD*%
D11*
%TO.C,R15*%
X118500000Y-87175000D03*
X118500000Y-88825000D03*
%TD*%
D45*
%TO.C,U1*%
X71240000Y-84750000D03*
X72510000Y-84750000D03*
X73780000Y-84750000D03*
X75050000Y-84750000D03*
X76320000Y-84750000D03*
X77590000Y-84750000D03*
X78860000Y-84750000D03*
X80130000Y-84750000D03*
X81400000Y-84750000D03*
X82670000Y-84750000D03*
X83940000Y-84750000D03*
X85210000Y-84750000D03*
X86480000Y-84750000D03*
X87750000Y-84750000D03*
D46*
X89000000Y-82985000D03*
X89000000Y-81715000D03*
X89000000Y-80445000D03*
X89000000Y-79175000D03*
X89000000Y-77905000D03*
X89000000Y-76635000D03*
X89000000Y-75365000D03*
X89000000Y-74095000D03*
X89000000Y-72825000D03*
X89000000Y-71555000D03*
X89000000Y-70285000D03*
X89000000Y-69015000D03*
D45*
X87750000Y-67250000D03*
X86480000Y-67250000D03*
X85210000Y-67250000D03*
X83940000Y-67250000D03*
X82670000Y-67250000D03*
X81400000Y-67250000D03*
X80130000Y-67250000D03*
X78860000Y-67250000D03*
X77590000Y-67250000D03*
X76320000Y-67250000D03*
X75050000Y-67250000D03*
X73780000Y-67250000D03*
X72510000Y-67250000D03*
X71240000Y-67250000D03*
D47*
X78260000Y-78900000D03*
X79660000Y-78900000D03*
X77560000Y-78200000D03*
X78960000Y-78200000D03*
X80360000Y-78200000D03*
X78260000Y-77500000D03*
D48*
X78960000Y-77500000D03*
D47*
X79660000Y-77500000D03*
X77560000Y-76800000D03*
X78960000Y-76800000D03*
X80360000Y-76800000D03*
X78260000Y-76100000D03*
X79660000Y-76100000D03*
%TD*%
D49*
%TO.C,USB1*%
X142900000Y-54390000D03*
X142900000Y-48610000D03*
D50*
X141455000Y-54750000D03*
X141455000Y-53950000D03*
D51*
X141455000Y-52750000D03*
X141455000Y-51750000D03*
X141455000Y-51250000D03*
X141455000Y-50250000D03*
D50*
X141455000Y-49050000D03*
X141455000Y-48250000D03*
X141455000Y-48250000D03*
X141455000Y-49050000D03*
D51*
X141455000Y-49750000D03*
X141455000Y-50750000D03*
X141455000Y-52250000D03*
X141455000Y-53250000D03*
D50*
X141455000Y-53950000D03*
X141455000Y-54750000D03*
D52*
X142370000Y-55820000D03*
D53*
X146550000Y-55820000D03*
D52*
X142370000Y-47180000D03*
D53*
X146550000Y-47180000D03*
%TD*%
D54*
%TO.C,OC2*%
X100730000Y-102765000D03*
X103270000Y-102765000D03*
X103270000Y-93235000D03*
X100730000Y-93235000D03*
%TD*%
D55*
%TO.C,D4*%
X145500000Y-88787500D03*
X145500000Y-87212500D03*
%TD*%
D56*
%TO.C,L1*%
X141000000Y-99650000D03*
X141000000Y-103350000D03*
%TD*%
D20*
%TO.C,R11*%
X77000000Y-103000000D03*
X78650000Y-103000000D03*
%TD*%
D28*
%TO.C,R19*%
X151000000Y-75325000D03*
X151000000Y-73675000D03*
%TD*%
D15*
%TO.C,R48*%
X121825000Y-54000000D03*
X120175000Y-54000000D03*
%TD*%
D38*
%TO.C,OC11*%
X147735000Y-81730000D03*
X147735000Y-84270000D03*
X157265000Y-84270000D03*
X157265000Y-81730000D03*
%TD*%
D28*
%TO.C,R29*%
X127500000Y-86325000D03*
X127500000Y-84675000D03*
%TD*%
D57*
%TO.C,D12*%
X125287500Y-54500000D03*
X123712500Y-54500000D03*
%TD*%
%TO.C,D7*%
X148787500Y-77500000D03*
X147212500Y-77500000D03*
%TD*%
D15*
%TO.C,R37*%
X148825000Y-79000000D03*
X147175000Y-79000000D03*
%TD*%
D58*
%TO.C,D18*%
X139000000Y-52125000D03*
X139000000Y-53875000D03*
%TD*%
D59*
%TO.C,K1*%
X97125000Y-55800000D03*
D60*
X107285000Y-55800000D03*
X114905000Y-55800000D03*
X112365000Y-48180000D03*
X97125000Y-48180000D03*
%TD*%
D61*
%TO.C,R49*%
X102500000Y-85087500D03*
X102500000Y-86912500D03*
%TD*%
D62*
%TO.C,C3*%
X130000000Y-103475000D03*
X130000000Y-100525000D03*
%TD*%
D11*
%TO.C,R23*%
X156500000Y-61175000D03*
X156500000Y-62825000D03*
%TD*%
D63*
%TO.C,D10*%
X120080000Y-63500000D03*
D17*
X109920000Y-63500000D03*
%TD*%
D15*
%TO.C,R36*%
X145325000Y-79500000D03*
X143675000Y-79500000D03*
%TD*%
D64*
%TO.C,U4*%
X92365000Y-73687500D03*
X93635000Y-73687500D03*
X93635000Y-67312500D03*
X92365000Y-67312500D03*
%TD*%
D15*
%TO.C,R51*%
X96825000Y-83500000D03*
X95175000Y-83500000D03*
%TD*%
D24*
%TO.C,R2*%
X139500000Y-47320000D03*
X139500000Y-46680000D03*
%TD*%
D15*
%TO.C,R46*%
X103325000Y-75500000D03*
X101675000Y-75500000D03*
%TD*%
D32*
%TO.C,D21*%
X106000000Y-82500000D03*
X106000000Y-86500000D03*
%TD*%
D65*
%TO.C,R66*%
X139820000Y-55500000D03*
X139180000Y-55500000D03*
%TD*%
D66*
%TO.C,D19*%
X153000000Y-68500000D03*
X153000000Y-64500000D03*
%TD*%
D15*
%TO.C,R14*%
X95325000Y-102500000D03*
X93675000Y-102500000D03*
%TD*%
D28*
%TO.C,R57*%
X97000000Y-96325000D03*
X97000000Y-94675000D03*
%TD*%
%TO.C,R4*%
X111500000Y-79325000D03*
X111500000Y-77675000D03*
%TD*%
D17*
%TO.C,REF\u002A\u002A*%
X72500000Y-100500000D03*
%TD*%
D29*
%TO.C,OC4*%
X78000000Y-88970000D03*
X75460000Y-88970000D03*
X75460000Y-98500000D03*
X78000000Y-98500000D03*
%TD*%
D20*
%TO.C,R34*%
X157175000Y-98000000D03*
X158825000Y-98000000D03*
%TD*%
D28*
%TO.C,R33*%
X159000000Y-104325000D03*
X159000000Y-102675000D03*
%TD*%
D20*
%TO.C,R31*%
X143175000Y-97500000D03*
X144825000Y-97500000D03*
%TD*%
D15*
%TO.C,R3*%
X127825000Y-79000000D03*
X126175000Y-79000000D03*
%TD*%
D28*
%TO.C,R44*%
X105500000Y-68325000D03*
X105500000Y-66675000D03*
%TD*%
%TO.C,R16*%
X130000000Y-86325000D03*
X130000000Y-84675000D03*
%TD*%
D63*
%TO.C,D9*%
X120080000Y-60000000D03*
D17*
X109920000Y-60000000D03*
%TD*%
D15*
%TO.C,R56*%
X116325000Y-81500000D03*
X114675000Y-81500000D03*
%TD*%
%TO.C,R65*%
X111825000Y-81000000D03*
X110175000Y-81000000D03*
%TD*%
D59*
%TO.C,K2*%
X89875000Y-47700000D03*
D60*
X79715000Y-47700000D03*
X72095000Y-47700000D03*
X74635000Y-55320000D03*
X89875000Y-55320000D03*
%TD*%
D28*
%TO.C,R30*%
X133000000Y-92325000D03*
X133000000Y-90675000D03*
%TD*%
D11*
%TO.C,R50*%
X127500000Y-47175000D03*
X127500000Y-48825000D03*
%TD*%
D67*
%TO.C,U21*%
X141206000Y-61595000D03*
X141206000Y-62865000D03*
X141206000Y-64135000D03*
X141206000Y-65405000D03*
X146794000Y-65405000D03*
X146794000Y-64135000D03*
X146794000Y-62865000D03*
X146794000Y-61595000D03*
%TD*%
D68*
%TO.C,C9*%
X107500000Y-68037500D03*
X107500000Y-65962500D03*
%TD*%
D57*
%TO.C,D2*%
X115287500Y-100000000D03*
X113712500Y-100000000D03*
%TD*%
D69*
%TO.C,D11*%
X108500000Y-70050000D03*
X108500000Y-72950000D03*
%TD*%
D33*
%TO.C,OC1*%
X127265000Y-102770000D03*
X127265000Y-100230000D03*
X117735000Y-100230000D03*
X117735000Y-102770000D03*
%TD*%
%TO.C,OC13*%
X94265000Y-93770000D03*
X94265000Y-91230000D03*
X84735000Y-91230000D03*
X84735000Y-93770000D03*
%TD*%
D20*
%TO.C,R7*%
X123175000Y-67500000D03*
X124825000Y-67500000D03*
%TD*%
D70*
%TO.C,D15*%
X111500000Y-89500000D03*
X115500000Y-89500000D03*
%TD*%
D71*
%TO.C,J2*%
X70500000Y-110500000D03*
D37*
X75500000Y-110500000D03*
X80500000Y-110500000D03*
X85500000Y-110500000D03*
X90500000Y-110500000D03*
X95500000Y-110500000D03*
X100500000Y-110500000D03*
X105500000Y-110500000D03*
X110500000Y-110500000D03*
X115500000Y-110500000D03*
X120500000Y-110500000D03*
X125500000Y-110500000D03*
X130500000Y-110500000D03*
X135500000Y-110500000D03*
X140500000Y-110500000D03*
X145500000Y-110500000D03*
X150500000Y-110500000D03*
X155500000Y-110500000D03*
%TD*%
D26*
%TO.C,Q4*%
X78540000Y-59050000D03*
D27*
X76000000Y-59050000D03*
X73460000Y-59050000D03*
%TD*%
D20*
%TO.C,R26*%
X154175000Y-94500000D03*
X155825000Y-94500000D03*
%TD*%
D72*
%TO.C,U19*%
X95912500Y-67095000D03*
X95912500Y-68365000D03*
X95912500Y-69635000D03*
X95912500Y-70905000D03*
X103087500Y-70905000D03*
X103087500Y-69635000D03*
X103087500Y-68365000D03*
X103087500Y-67095000D03*
%TD*%
D73*
%TO.C,D17*%
X105150000Y-78000000D03*
X101850000Y-78000000D03*
%TD*%
D54*
%TO.C,OC7*%
X156730000Y-74765000D03*
X159270000Y-74765000D03*
X159270000Y-65235000D03*
X156730000Y-65235000D03*
%TD*%
D70*
%TO.C,D13*%
X144500000Y-73500000D03*
X148500000Y-73500000D03*
%TD*%
D22*
%TO.C,Q1*%
X158000000Y-56000000D03*
D23*
X156730000Y-54730000D03*
X155460000Y-56000000D03*
%TD*%
D54*
%TO.C,OC14*%
X130230000Y-58765000D03*
X132770000Y-58765000D03*
X132770000Y-49235000D03*
X130230000Y-49235000D03*
%TD*%
D28*
%TO.C,R64*%
X111500000Y-76325000D03*
X111500000Y-74675000D03*
%TD*%
D43*
%TO.C,C4*%
X137500000Y-101725000D03*
X137500000Y-103275000D03*
%TD*%
D20*
%TO.C,R17*%
X113675000Y-101500000D03*
X115325000Y-101500000D03*
%TD*%
D22*
%TO.C,Q8*%
X124085276Y-49315276D03*
D23*
X122815276Y-48045276D03*
X121545276Y-49315276D03*
%TD*%
D74*
%TO.C,R62*%
X142412500Y-58500000D03*
X140587500Y-58500000D03*
%TD*%
D75*
%TO.C,J4*%
X130960000Y-64500000D03*
D76*
X133500000Y-64500000D03*
X136040000Y-64500000D03*
%TD*%
D28*
%TO.C,R24*%
X161000000Y-60325000D03*
X161000000Y-58675000D03*
%TD*%
D20*
%TO.C,R45*%
X119675000Y-67500000D03*
X121325000Y-67500000D03*
%TD*%
D38*
%TO.C,OC3*%
X127735000Y-69230000D03*
X127735000Y-71770000D03*
X137265000Y-71770000D03*
X137265000Y-69230000D03*
%TD*%
D28*
%TO.C,R32*%
X159000000Y-101325000D03*
X159000000Y-99675000D03*
%TD*%
D38*
%TO.C,OC10*%
X147235000Y-100730000D03*
X147235000Y-103270000D03*
X156765000Y-103270000D03*
X156765000Y-100730000D03*
%TD*%
D16*
%TO.C,C12*%
X146225000Y-70500000D03*
X147775000Y-70500000D03*
%TD*%
D65*
%TO.C,R1*%
X139820000Y-56500000D03*
X139180000Y-56500000D03*
%TD*%
D42*
%TO.C,D22*%
X136862500Y-48550000D03*
X136862500Y-49500000D03*
X136862500Y-50450000D03*
X139137500Y-50450000D03*
X139137500Y-48550000D03*
%TD*%
D15*
%TO.C,R18*%
X112325000Y-100000000D03*
X110675000Y-100000000D03*
%TD*%
D20*
%TO.C,R8*%
X147175000Y-68500000D03*
X148825000Y-68500000D03*
%TD*%
D77*
%TO.C,C13*%
X97037500Y-81500000D03*
X94962500Y-81500000D03*
%TD*%
D38*
%TO.C,OC12*%
X114235000Y-70230000D03*
X114235000Y-72770000D03*
X123765000Y-72770000D03*
X123765000Y-70230000D03*
%TD*%
D78*
%TO.C,C6*%
X131950000Y-96000000D03*
X130050000Y-96000000D03*
%TD*%
D20*
%TO.C,R63*%
X144175000Y-58500000D03*
X145825000Y-58500000D03*
%TD*%
D15*
%TO.C,R38*%
X145325000Y-77500000D03*
X143675000Y-77500000D03*
%TD*%
M02*
