M48
; DRILL file {KiCad 9.0.5} date 2025-12-09T21:30:01-0400
; FORMAT={-:-/ absolute / metric / decimal}
; #@! TF.CreationDate,2025-12-09T21:30:01-04:00
; #@! TF.GenerationSoftware,Kicad,Pcbnew,9.0.5
; #@! TF.FileFunction,Plated,1,4,PTH
FMAT,2
METRIC
; #@! TA.AperFunction,Plated,PTH,ViaDrill
T1C0.100
; #@! TA.AperFunction,Plated,PTH,ViaDrill
T2C0.300
; #@! TA.AperFunction,Plated,PTH,ComponentDrill
T3C0.500
; #@! TA.AperFunction,Plated,PTH,ComponentDrill
T4C0.600
%
G90
G05
T1
X130.3Y-88.94
X136.35Y-85.54
X136.85Y-84.74
X142.6Y-88.94
T2
X132.0Y-83.84
X134.15Y-85.54
X135.2Y-84.74
X138.6Y-83.54
T3
G00X131.85Y-82.703
M15
G01X131.85Y-81.403
M16
G05
G00X140.35Y-82.703
M15
G01X140.35Y-81.403
M16
G05
T4
G00X131.78Y-116.459
M15
G01X131.78Y-117.559
M16
G05
G00X131.78Y-120.79
M15
G01X131.78Y-121.59
M16
G05
G00X140.42Y-116.459
M15
G01X140.42Y-117.559
M16
G05
G00X140.42Y-120.789
M15
G01X140.42Y-121.589
M16
G05
M30
