M48
; DRILL file {KiCad 9.0.5} date 2025-12-09T21:28:29-0400
; FORMAT={-:-/ absolute / metric / decimal}
; #@! TF.CreationDate,2025-12-09T21:28:29-04:00
; #@! TF.GenerationSoftware,Kicad,Pcbnew,9.0.5
; #@! TF.FileFunction,Plated,1,4,PTH
FMAT,2
METRIC
; #@! TA.AperFunction,Plated,PTH,ComponentDrill
T1C0.200
; #@! TA.AperFunction,Plated,PTH,ViaDrill
T2C0.300
; #@! TA.AperFunction,Plated,PTH,ComponentDrill
T3C0.600
; #@! TA.AperFunction,Plated,PTH,ComponentDrill
T4C0.700
; #@! TA.AperFunction,Plated,PTH,ComponentDrill
T5C1.000
; #@! TA.AperFunction,Plated,PTH,ComponentDrill
T6C1.100
; #@! TA.AperFunction,Plated,PTH,ComponentDrill
T7C1.300
%
G90
G05
T1
X77.56Y-76.8
X77.56Y-78.2
X78.26Y-76.1
X78.26Y-77.5
X78.26Y-78.9
X78.96Y-76.8
X78.96Y-78.2
X79.66Y-76.1
X79.66Y-77.5
X79.66Y-78.9
X80.36Y-76.8
X80.36Y-78.2
T2
X71.24Y-67.25
X71.24Y-84.75
X72.0Y-56.0
X74.42Y-86.0
X74.5Y-87.0
X75.46Y-98.5
X76.0Y-86.003
X76.966Y-82.534
X77.5Y-98.0
X77.972Y-87.028
X78.5Y-81.5
X78.5Y-103.0
X79.0Y-83.497
X79.168Y-87.332
X79.5Y-43.0
X80.026Y-88.087
X80.13Y-84.75
X80.48Y-98.48
X82.0Y-58.5
X82.0Y-65.0
X82.0Y-98.175
X83.0Y-88.5
X83.026Y-61.087
X84.735Y-97.23
X85.5Y-78.0
X85.5Y-82.5
X85.5Y-86.003
X85.5Y-112.5
X86.0Y-64.0
X86.0Y-72.5
X86.5Y-65.0
X86.965Y-86.035
X87.0Y-66.0
X87.0Y-69.0
X87.0Y-80.0
X87.0Y-83.0
X88.0Y-77.0
X88.5Y-86.5
X89.018Y-84.018
X90.0Y-68.005
X90.0Y-85.0
X90.0Y-89.0
X90.5Y-82.5
X90.5Y-88.0
X90.571Y-87.0
X90.641Y-84.5
X90.819Y-67.5
X91.0Y-72.0
X91.0Y-73.0
X91.0Y-101.5
X91.486Y-76.485
X91.5Y-109.5
X92.0Y-96.0
X92.0Y-98.5
X92.5Y-78.0
X92.5Y-88.5
X93.5Y-75.06
X93.5Y-79.5
X94.0Y-85.0
X94.0Y-89.0
X94.265Y-93.77
X94.483Y-73.464
X94.5Y-68.5
X94.5Y-76.0
X95.325Y-102.5
X95.5Y-101.5
X95.5Y-105.5
X95.912Y-68.365
X96.684Y-94.5
X97.0Y-96.325
X97.228Y-69.439
X98.0Y-68.0
X98.0Y-68.0
X98.5Y-72.0
X98.812Y-64.635
X99.0Y-72.606
X100.675Y-91.0
X100.95Y-81.5
X101.0Y-71.815
X101.5Y-67.5
X101.604Y-91.765
X102.0Y-63.5
X102.0Y-72.5
X102.0Y-80.0
X102.0Y-105.0
X102.0Y-109.0
X102.5Y-88.5
X103.0Y-81.0
X103.5Y-64.0
X103.5Y-89.319
X103.5Y-99.0
X104.0Y-82.0
X104.0Y-85.0
X105.0Y-75.5
X105.0Y-93.5
X105.15Y-78.0
X105.188Y-63.365
X106.0Y-82.5
X106.0Y-88.253
X106.0Y-91.0
X106.535Y-68.0
X106.82Y-102.175
X107.0Y-84.5
X107.0Y-92.5
X107.035Y-74.535
X107.5Y-77.5
X107.5Y-79.0
X107.5Y-99.5
X107.657Y-79.915
X107.893Y-74.393
X108.0Y-75.5
X108.09Y-81.5
X108.5Y-90.5
X109.0Y-86.5
X109.5Y-74.0
X110.0Y-72.136
X110.5Y-102.0
X110.675Y-100.0
X111.0Y-68.0
X111.0Y-103.825
X111.5Y-71.825
X111.5Y-77.675
X112.5Y-80.235
X112.5Y-83.015
X112.5Y-93.0
X112.535Y-76.5
X113.675Y-101.5
X114.0Y-84.517
X114.235Y-72.77
X114.235Y-76.23
X115.0Y-68.5
X115.0Y-80.5
X115.0Y-83.5
X115.325Y-101.5
X116.5Y-67.0
X116.5Y-92.0
X117.5Y-94.0
X117.5Y-99.0
X117.5Y-105.5
X117.735Y-100.23
X118.5Y-62.0
X118.5Y-83.0
X118.5Y-87.175
X119.0Y-84.5
X119.357Y-68.857
X120.528Y-77.112
X120.939Y-65.645
X121.325Y-67.5
X121.5Y-73.5
X123.0Y-64.0
X123.0Y-88.0
X123.5Y-65.5
X123.5Y-96.0
X124.0Y-47.0
X124.0Y-85.0
X124.0Y-90.5
X124.163Y-89.163
X125.0Y-36.5
X125.0Y-80.0
X126.0Y-100.0
X127.087Y-82.5
X127.5Y-56.5
X129.0Y-80.5
X129.575Y-56.425
X129.961Y-74.539
X130.0Y-84.675
X130.0Y-100.525
X130.05Y-96.0
X130.5Y-78.5
X130.5Y-93.0
X131.5Y-55.0
X132.0Y-70.0
X132.5Y-87.5
X134.357Y-52.143
X134.5Y-51.0
X134.641Y-46.141
X135.0Y-84.825
X135.0Y-91.561
X135.137Y-103.95
X136.5Y-66.0
X136.5Y-77.5
X136.76Y-68.725
X136.862Y-48.55
X136.862Y-50.45
X137.0Y-87.5
X137.73Y-74.735
X137.73Y-84.265
X138.0Y-49.0
X138.0Y-50.0
X138.0Y-82.5
X138.5Y-55.0
X139.0Y-77.5
X139.137Y-48.55
X139.5Y-67.5
X139.5Y-69.415
X139.5Y-69.415
X140.0Y-45.0
X140.0Y-49.5
X140.0Y-53.0
X140.018Y-84.517
X140.168Y-55.38
X141.0Y-87.5
X141.206Y-61.595
X141.206Y-64.135
X141.206Y-65.405
X142.0Y-76.5
X142.0Y-85.212
X143.0Y-63.5
X143.0Y-85.5
X143.675Y-81.5
X144.175Y-58.5
X144.5Y-73.5
X145.5Y-64.5
X145.825Y-58.5
X146.225Y-70.5
X147.175Y-79.0
X147.5Y-94.0
X147.775Y-71.5
X148.862Y-73.138
X149.0Y-77.5
X149.0Y-97.5
X149.092Y-60.592
X150.0Y-76.5
X150.0Y-80.5
X150.0Y-89.23
X150.0Y-91.5
X150.5Y-67.0
X153.0Y-68.5
X153.0Y-74.5
X153.0Y-79.0
X153.0Y-81.5
X153.0Y-87.0
X153.713Y-98.0
X154.5Y-66.5
X155.825Y-94.5
X156.5Y-61.175
X156.5Y-65.0
X158.0Y-70.5
X158.5Y-77.0
X159.463Y-90.963
X159.564Y-87.175
X161.0Y-93.0
X161.383Y-82.987
T4
X112.915Y-95.185
X114.185Y-96.455
X115.455Y-95.185
X121.545Y-49.315
X122.815Y-48.045
X124.085Y-49.315
X139.545Y-91.185
X140.815Y-89.915
X140.815Y-92.455
X155.46Y-56.0
X156.73Y-54.73
X158.0Y-56.0
T5
X130.96Y-64.5
X133.5Y-64.5
X136.04Y-64.5
T6
X73.46Y-59.05
X76.0Y-59.05
X78.54Y-59.05
X86.96Y-60.95
X89.5Y-60.95
X92.04Y-60.95
X109.92Y-60.0
X109.92Y-63.5
X120.08Y-60.0
X120.08Y-63.5
T7
X70.0Y-40.0
X70.5Y-110.5
X72.095Y-47.7
X74.635Y-55.32
X75.0Y-40.0
X75.5Y-110.5
X79.715Y-47.7
X80.0Y-40.0
X80.5Y-110.5
X85.0Y-40.0
X85.5Y-110.5
X89.875Y-47.7
X89.875Y-55.32
X90.0Y-40.0
X90.5Y-110.5
X95.0Y-40.0
X95.5Y-110.5
X97.125Y-48.18
X97.125Y-55.8
X100.0Y-40.0
X100.5Y-110.5
X105.0Y-40.0
X105.5Y-110.5
X107.285Y-55.8
X110.0Y-40.0
X110.5Y-110.5
X112.365Y-48.18
X114.905Y-55.8
X115.0Y-40.0
X115.5Y-110.5
X120.0Y-40.0
X120.5Y-110.5
X125.0Y-40.0
X125.5Y-110.5
X130.0Y-40.0
X130.5Y-110.5
X135.0Y-40.0
X135.5Y-110.5
X140.0Y-40.0
X140.5Y-110.5
X145.0Y-40.0
X145.5Y-110.5
X150.0Y-40.0
X150.5Y-110.5
X155.0Y-40.0
X155.5Y-110.5
T3
G00X141.82Y-47.18
M15
G01X142.92Y-47.18
M16
G05
G00X141.82Y-55.82
M15
G01X142.92Y-55.82
M16
G05
G00X146.25Y-47.18
M15
G01X146.85Y-47.18
M16
G05
G00X146.25Y-55.82
M15
G01X146.85Y-55.82
M16
G05
M30
